<?xml version="1.0" encoding="utf-8"?>
<!-- Generator: Adobe Illustrator 25.4.1, SVG Export Plug-In . SVG Version: 6.00 Build 0)  -->
<svg version="1.1" id="Layer_1" xmlns="http://www.w3.org/2000/svg" xmlns:xlink="http://www.w3.org/1999/xlink" x="0px" y="0px"
	 viewBox="0 0 50 67.6" style="enable-background:new 0 0 50 67.6;" xml:space="preserve">
<style type="text/css">
	.st0{fill:none;}
</style>
<g id="accolade-icon" transform="translate(-714.563 -475.291)">
	<g id="Group_1136" transform="translate(714.563 475.291)">
		<path id="Path_355" d="M45.2,29l4-4l-4-4l2.2-5.2l-5.3-2.2l0-5.7l-5.7,0l-2.2-5.3L29,4.9l-4-4l-4,4l-5.2-2.2l-2.2,5.3l-5.7,0
			l0,5.7l-5.2,2.2L4.9,21l-4,4l4,4l-2.2,5.2l5.2,2.2l0,5.7l5.7,0l2.2,5.2l5.2-2.2l4,4l4-4l5.2,2.2l2.2-5.2l5.7,0l0-5.7l5.3-2.2
			L45.2,29z M42.6,25.3c0,9.8-7.9,17.7-17.7,17.7c-9.8,0-17.7-7.9-17.7-17.7c0-9.8,7.9-17.7,17.7-17.7C34.6,7.6,42.6,15.5,42.6,25.3
			z"/>
		<path id="Path_355_-_Outline" d="M24.9,7C14.8,7,6.6,15.2,6.6,25.3c0,10.1,8.2,18.3,18.3,18.3c4.9,0,9.5-1.9,12.9-5.4
			c3.4-3.4,5.3-8.1,5.3-12.9C43.1,15.2,35,7,24.9,7z M24.9,42.4c-9.5,0-17.1-7.7-17.1-17.1S15.4,8.2,24.9,8.2
			c9.4,0,17.1,7.7,17.1,17.1C42,34.8,34.3,42.4,24.9,42.4z M24.9,7C14.8,7,6.6,15.2,6.6,25.3c0,10.1,8.2,18.3,18.3,18.3
			c4.9,0,9.5-1.9,12.9-5.4c3.4-3.4,5.3-8.1,5.3-12.9C43.1,15.2,35,7,24.9,7z M24.9,42.4c-9.5,0-17.1-7.7-17.1-17.1
			S15.4,8.2,24.9,8.2c9.4,0,17.1,7.7,17.1,17.1C42,34.8,34.3,42.4,24.9,42.4z M24.9,7C14.8,7,6.6,15.2,6.6,25.3
			c0,10.1,8.2,18.3,18.3,18.3c4.9,0,9.5-1.9,12.9-5.4c3.4-3.4,5.3-8.1,5.3-12.9C43.1,15.2,35,7,24.9,7z M24.9,42.4
			c-9.5,0-17.1-7.7-17.1-17.1S15.4,8.2,24.9,8.2c9.4,0,17.1,7.7,17.1,17.1C42,34.8,34.3,42.4,24.9,42.4z M24.9,7
			C14.8,7,6.6,15.2,6.6,25.3c0,10.1,8.2,18.3,18.3,18.3c4.9,0,9.5-1.9,12.9-5.4c3.4-3.4,5.3-8.1,5.3-12.9C43.1,15.2,35,7,24.9,7z
			 M24.9,42.4c-9.5,0-17.1-7.7-17.1-17.1S15.4,8.2,24.9,8.2c9.4,0,17.1,7.7,17.1,17.1C42,34.8,34.3,42.4,24.9,42.4z M24.9,7
			C14.8,7,6.6,15.2,6.6,25.3c0,10.1,8.2,18.3,18.3,18.3c4.9,0,9.5-1.9,12.9-5.4c3.4-3.4,5.3-8.1,5.3-12.9C43.1,15.2,35,7,24.9,7z
			 M24.9,42.4c-9.5,0-17.1-7.7-17.1-17.1S15.4,8.2,24.9,8.2c9.4,0,17.1,7.7,17.1,17.1C42,34.8,34.3,42.4,24.9,42.4z M24.9,7
			C14.8,7,6.6,15.2,6.6,25.3c0,10.1,8.2,18.3,18.3,18.3c4.9,0,9.5-1.9,12.9-5.4c3.4-3.4,5.3-8.1,5.3-12.9C43.1,15.2,35,7,24.9,7z
			 M24.9,42.4c-9.5,0-17.1-7.7-17.1-17.1S15.4,8.2,24.9,8.2c9.4,0,17.1,7.7,17.1,17.1C42,34.8,34.3,42.4,24.9,42.4z M45.8,29.2
			L50,25l-4.2-4.1l2.3-5.4l-5.4-2.2l0-5.9l-5.9,0l-2.2-5.4l-5.4,2.3L25,0l-4.1,4.2l-5.4-2.3l-2.2,5.4l-5.9,0l0,5.9l-5.4,2.2l2.3,5.4
			L0,25l4.2,4.2l-2.3,5.4l5.4,2.2l0,5.9l5.9,0l2.2,5.4l5.4-2.3L25,50l4.1-4.2l5.4,2.3l2.2-5.4l5.9,0l0-5.9l5.4-2.2L45.8,29.2z
			 M21.1,44.5l-5.1,2.1L14,41.5l-5.5,0l0-5.5l-5.1-2.1l2.1-5.1L1.7,25l3.9-3.9l-2.1-5.1L8.5,14l0-5.5l5.5,0l2.1-5.1l5.1,2.1L25,1.7
			l3.9,3.9l5.1-2.1L36,8.5l5.5,0l0,5.5l5.1,2.1l-2.1,5.1l3.9,3.9l-3.9,3.9l2.1,5.1L41.5,36l0,5.5l-5.5,0l-2.1,5.1l-5.1-2.1L25,48.4
			L21.1,44.5z M43.1,25.3C43.1,15.2,35,7,24.9,7C14.8,7,6.6,15.2,6.6,25.3c0,10.1,8.2,18.3,18.3,18.3c4.9,0,9.5-1.9,12.9-5.4
			C41.2,34.8,43.1,30.2,43.1,25.3z M24.9,42.4c-9.5,0-17.1-7.7-17.1-17.1S15.4,8.2,24.9,8.2c9.4,0,17.1,7.7,17.1,17.1
			C42,34.8,34.3,42.4,24.9,42.4z M24.9,7C14.8,7,6.6,15.2,6.6,25.3c0,10.1,8.2,18.3,18.3,18.3c4.9,0,9.5-1.9,12.9-5.4
			c3.4-3.4,5.3-8.1,5.3-12.9C43.1,15.2,35,7,24.9,7z M24.9,42.4c-9.5,0-17.1-7.7-17.1-17.1S15.4,8.2,24.9,8.2
			c9.4,0,17.1,7.7,17.1,17.1C42,34.8,34.3,42.4,24.9,42.4z M24.9,7C14.8,7,6.6,15.2,6.6,25.3c0,10.1,8.2,18.3,18.3,18.3
			c4.9,0,9.5-1.9,12.9-5.4c3.4-3.4,5.3-8.1,5.3-12.9C43.1,15.2,35,7,24.9,7z M24.9,42.4c-9.5,0-17.1-7.7-17.1-17.1
			S15.4,8.2,24.9,8.2c9.4,0,17.1,7.7,17.1,17.1C42,34.8,34.3,42.4,24.9,42.4z M24.9,7C14.8,7,6.6,15.2,6.6,25.3
			c0,10.1,8.2,18.3,18.3,18.3c4.9,0,9.5-1.9,12.9-5.4c3.4-3.4,5.3-8.1,5.3-12.9C43.1,15.2,35,7,24.9,7z M24.9,42.4
			c-9.5,0-17.1-7.7-17.1-17.1S15.4,8.2,24.9,8.2c9.4,0,17.1,7.7,17.1,17.1C42,34.8,34.3,42.4,24.9,42.4z M24.9,7
			C14.8,7,6.6,15.2,6.6,25.3c0,10.1,8.2,18.3,18.3,18.3c4.9,0,9.5-1.9,12.9-5.4c3.4-3.4,5.3-8.1,5.3-12.9C43.1,15.2,35,7,24.9,7z
			 M24.9,42.4c-9.5,0-17.1-7.7-17.1-17.1S15.4,8.2,24.9,8.2c9.4,0,17.1,7.7,17.1,17.1C42,34.8,34.3,42.4,24.9,42.4z"/>
		<path d="M29.3,25c-1.4,0-1.9,1.4-1.9,4.3s0.6,4.3,2,4.3v0c1.4,0,1.9-1.4,1.9-4.3S30.6,25,29.3,25z M29.3,25
			c-1.4,0-1.9,1.4-1.9,4.3s0.6,4.3,2,4.3v0c1.4,0,1.9-1.4,1.9-4.3S30.6,25,29.3,25z M24.8,16.7L24.8,16.7c-1.1,0-1.9,0.9-1.9,1.9
			v0.1c0,1,0.8,1.9,1.9,1.9v0c0,0,0,0,0.1,0c1,0,1.8-0.9,1.8-1.9v-0.1C26.6,17.6,25.8,16.7,24.8,16.7z M29.3,25
			c-1.4,0-1.9,1.4-1.9,4.3s0.6,4.3,2,4.3v0c1.4,0,1.9-1.4,1.9-4.3S30.6,25,29.3,25z M29.3,25c-1.4,0-1.9,1.4-1.9,4.3s0.6,4.3,2,4.3
			v0c1.4,0,1.9-1.4,1.9-4.3S30.6,25,29.3,25z M24.8,16.7L24.8,16.7c-1.1,0-1.9,0.9-1.9,1.9v0.1c0,1,0.8,1.9,1.9,1.9v0c0,0,0,0,0.1,0
			c1,0,1.8-0.9,1.8-1.9v-0.1C26.6,17.6,25.8,16.7,24.8,16.7z M24.6,10.6c-8.1,0-14.7,6.6-14.7,14.7c0,8.1,6.6,14.7,14.7,14.7
			c8.1,0,14.7-6.6,14.7-14.7c0,0,0,0,0,0C39.3,17.2,32.7,10.6,24.6,10.6z M30.9,15.9c0.1,0,0.2,0,0.3,0c1,0,1.8,0.8,1.8,1.9v0
			c0,1.2-1,1.9-2.2,1.9h-1.1v1.8h-1l0-5.5H30.9z M17.1,15.9h4.5v0.9h-1.8v4.6h-1v-4.6h-1.8V15.9z M24.2,31.5c-0.2,2-2,3.5-4,3.3
			c-1.9,0-3.6-1-3.6-2.4c0,0,0,0,0-0.1c0-0.7,0.5-1.3,1.3-1.3H18c0.6,0,1,0.5,1,1.1c0,0.4-0.2,0.8-0.6,1.1c0.4,0.4,1,0.6,1.6,0.6
			c1.3,0,2-0.9,2-2.4c0-1.5-0.7-2.3-1.9-2.3c-0.7,0-1.5,0.3-2,0.8l-0.9-0.2l0.4-5.4l0.3-0.3c1,0.4,2.1,0.6,3.2,0.6
			c0.9,0,1.8-0.2,2.6-0.6l0.3,0.7c-0.6,1.1-1.8,1.8-3.1,1.7c-0.8,0-1.5-0.2-2.3-0.5l-0.2,2.8c0.7-0.5,1.5-0.8,2.3-0.8
			c0.2,0,0.3,0,0.5,0c1.7,0.1,3,1.5,2.9,3.2C24.2,31.2,24.2,31.4,24.2,31.5z M24.6,21.5c-1.5,0-2.8-1.3-2.8-2.8v-0.1
			c0-1.5,1.3-2.8,2.9-2.7c0,0,0.1,0,0.1,0c1.5,0,2.8,1.3,2.8,2.8v0.1c0,1.6-1.3,2.8-2.9,2.8H24.6z M29.3,34.8
			c-2.6,0-4.1-2.2-4.1-5.4c0-3.2,1.6-5.5,4.2-5.5c2.6,0,4.2,2.2,4.2,5.4C33.5,32.5,31.9,34.8,29.3,34.8z M32,17.8L32,17.8
			c0-0.7-0.5-1-1.2-1h-1.1v2h1.1C31.5,18.8,32,18.4,32,17.8z M29.3,25c-1.4,0-1.9,1.4-1.9,4.3s0.6,4.3,2,4.3v0
			c1.4,0,1.9-1.4,1.9-4.3S30.6,25,29.3,25z M24.8,16.7L24.8,16.7c-1.1,0-1.9,0.9-1.9,1.9v0.1c0,1,0.8,1.9,1.9,1.9v0c0,0,0,0,0.1,0
			c1,0,1.8-0.9,1.8-1.9v-0.1C26.6,17.6,25.8,16.7,24.8,16.7z M29.3,25c-1.4,0-1.9,1.4-1.9,4.3s0.6,4.3,2,4.3v0
			c1.4,0,1.9-1.4,1.9-4.3S30.6,25,29.3,25z M29.3,25c-1.4,0-1.9,1.4-1.9,4.3s0.6,4.3,2,4.3v0c1.4,0,1.9-1.4,1.9-4.3S30.6,25,29.3,25
			z"/>
		<path id="Path_357" d="M25.1,53.2L20.8,49l-3.4,1.3v14.4l6.9-3.8l7.5,3.8V50.4l-2.9-1.4L25.1,53.2z"/>
		<path id="Path_357_-_Outline" d="M28.8,48.3l3.6,1.7v15.7l-8.1-4.1l-7.5,4.1V50l4.1-1.6l4.2,4L28.8,48.3z M25.2,54l-4.5-4.3
			L18,50.8v13l6.3-3.5l6.9,3.5v-13l-2.1-1L25.2,54z"/>
		<path id="Path_358" d="M36.4,66.6l-1.8-1l0-14.6l1.8,0.7L36.4,66.6z"/>
		<path id="Path_358_-_Outline" d="M37,67.6l-3-1.7l0-15.8l3,1.2L37,67.6z M35.2,65.2l0.6,0.4l0-13.5l-0.7-0.3L35.2,65.2z"/>
		<path id="Path_359" d="M12.6,66.6l1.8-1l0-14.6l-1.8,0.7L12.6,66.6z"/>
		<path id="Path_359_-_Outline" d="M12,67.6l0-16.3l3-1.2l0,15.8L12,67.6z M13.1,52.1l0,13.5l0.6-0.4l0-13.4L13.1,52.1z"/>
		<g id="Group_495" transform="translate(16.599 15.826)">
			<path class="st0" d="M14.5,0.1c-0.1,0-0.2,0-0.3,0h-2.2l0,5.5h1V3.8h1.1c1.2,0,2.2-0.6,2.2-1.9v0C16.4,0.9,15.5,0.1,14.5,0.1z
				 M15.4,2c0,0.6-0.4,1-1.2,1h-1.1V1h1.1C14.9,1,15.4,1.3,15.4,2L15.4,2z"/>
			<path class="st0" d="M8.3,0c0,0-0.1,0-0.1,0C6.6,0,5.3,1.2,5.3,2.7v0.1c0,1.5,1.2,2.8,2.8,2.8h0.1c1.6,0,2.8-1.2,2.9-2.7V2.8
				C11.1,1.3,9.8,0,8.3,0z M10,2.9c0,1-0.8,1.9-1.8,1.9c0,0-0.1,0-0.1,0v0c-1,0-1.9-0.8-1.9-1.9V2.8c0-1,0.7-1.9,1.8-1.9h0.1
				C9.2,0.9,10,1.7,10,2.9L10,2.9z"/>
			<polygon class="st0" points="4.9,0.1 4.9,1 3.2,1 3.2,5.6 2.2,5.6 2.2,1 0.5,1 0.5,0.1 			"/>
			<path class="st0" d="M12.8,8c-2.5,0-4.2,2.3-4.2,5.5c0,3.2,1.5,5.4,4.1,5.4c2.5,0,4.2-2.3,4.2-5.5C16.9,10.3,15.4,8,12.8,8z
				 M12.8,17.8L12.8,17.8c-1.3,0-2-1.4-2-4.3s0.5-4.3,1.9-4.3c1.3,0,2,1.4,2,4.3S14.1,17.8,12.8,17.8z"/>
			<path class="st0" d="M7.6,15.3c0,0.1,0,0.3,0,0.4c-0.2,2-2,3.5-4,3.3c-1.9,0-3.6-1-3.6-2.4c0,0,0,0,0-0.1c0-0.7,0.5-1.3,1.3-1.3
				h0.1c0.6,0,1,0.5,1,1.1c0,0.4-0.2,0.8-0.6,1.1c0.4,0.4,1,0.6,1.6,0.6c1.3,0,2-0.9,2-2.4c0-1.5-0.7-2.3-1.9-2.3
				c-0.7,0-1.5,0.3-2,0.8l-0.9-0.2L1,8.4l0.3-0.3c1,0.4,2.1,0.6,3.2,0.6c0.9,0,1.8-0.2,2.6-0.6l0.3,0.7c-0.6,1.1-1.8,1.8-3.1,1.7
				c-0.8,0-1.5-0.2-2.3-0.5l-0.2,2.8c0.7-0.5,1.5-0.8,2.3-0.8c0.2,0,0.3,0,0.5,0C6.3,12.1,7.7,13.6,7.6,15.3z"/>
		</g>
	</g>
</g>
</svg>
