<?xml version="1.0" encoding="utf-8"?>
<!-- Generator: Adobe Illustrator 25.4.1, SVG Export Plug-In . SVG Version: 6.00 Build 0)  -->
<svg version="1.1" id="Layer_1" xmlns="http://www.w3.org/2000/svg" xmlns:xlink="http://www.w3.org/1999/xlink" x="0px" y="0px"
	 viewBox="0 0 30 22.5" style="enable-background:new 0 0 30 22.5;" xml:space="preserve">
<g id="Group_1" transform="translate(3 -5)">
	<path id="Rectangle_2" d="M-1.8,5h27.5C26.5,5,27,5.5,27,6.2l0,0c0,0.8-0.5,1.2-1.2,1.2H-1.8C-2.5,7.5-3,7-3,6.2l0,0
		C-3,5.5-2.5,5-1.8,5z"/>
	<path id="Rectangle_3" d="M-1.8,15h20c0.8,0,1.2,0.5,1.2,1.2l0,0c0,0.8-0.5,1.2-1.2,1.2h-20C-2.5,17.5-3,17-3,16.2l0,0
		C-3,15.5-2.5,15-1.8,15z"/>
	<path id="Rectangle_4" d="M-1.8,25h27.5c0.7,0,1.2,0.5,1.2,1.2l0,0c0,0.7-0.5,1.2-1.2,1.2H-1.8C-2.5,27.5-3,27-3,26.2l0,0
		C-3,25.5-2.5,25-1.8,25z"/>
</g>
</svg>
