<?xml version="1.0" encoding="utf-8"?>
<!-- Generator: Adobe Illustrator 25.4.1, SVG Export Plug-In . SVG Version: 6.00 Build 0)  -->
<svg version="1.1" id="Layer_1" xmlns:v="https://vecta.io/nano"
	 xmlns="http://www.w3.org/2000/svg" xmlns:xlink="http://www.w3.org/1999/xlink" x="0px" y="0px" viewBox="0 0 30 30"
	 style="enable-background:new 0 0 30 30;" xml:space="preserve">
<path d="M8.7,0C3.9,0,0,3.9,0,8.7v12.6C0,26.1,3.9,30,8.7,30h12.6c4.8,0,8.7-3.9,8.7-8.7V8.7C30,3.9,26.1,0,21.3,0H8.7z M8.7,2.3
	h12.6c3.5,0,6.4,2.8,6.4,6.4c0,0,0,0,0,0v12.6c0,3.5-2.8,6.4-6.4,6.4c0,0,0,0,0,0H8.7c-3.5,0-6.4-2.8-6.4-6.4c0,0,0,0,0,0V8.7
	C2.3,5.2,5.1,2.3,8.7,2.3C8.7,2.3,8.7,2.3,8.7,2.3z M23.7,4.6c-1,0-1.7,0.8-1.7,1.7S22.8,8,23.7,8c1,0,1.7-0.8,1.7-1.7
	S24.6,4.6,23.7,4.6z M15,6.9c-4.5,0-8.1,3.6-8.1,8.1s3.6,8.1,8.1,8.1s8.1-3.6,8.1-8.1S19.5,6.9,15,6.9z M15,9.2
	c3.2,0,5.8,2.6,5.8,5.8s-2.6,5.8-5.8,5.8S9.2,18.2,9.2,15S11.8,9.2,15,9.2z"/>
</svg>
