<?xml version="1.0" encoding="utf-8"?>
<!-- Generator: Adobe Illustrator 25.4.1, SVG Export Plug-In . SVG Version: 6.00 Build 0)  -->
<svg version="1.1" id="Layer_1" xmlns="http://www.w3.org/2000/svg" xmlns:xlink="http://www.w3.org/1999/xlink" x="0px" y="0px"
	 viewBox="0 0 35 35" style="enable-background:new 0 0 35 35;" xml:space="preserve">
<style type="text/css">
	.st0{fill:none;stroke:#000000;stroke-width:2;stroke-linecap:round;stroke-linejoin:round;stroke-miterlimit:10;}
	.st1{fill:none;stroke:#000000;stroke-width:2;stroke-linecap:round;stroke-linejoin:round;}
	.st2{fill:#FFFFFF;stroke:#000000;stroke-width:2;stroke-linecap:round;stroke-linejoin:round;stroke-miterlimit:10;}
	.st3{fill:#FFFFFF;}
</style>
<g>
	<path class="st0" d="M23.8451,16.4217c0,0-10.0172,11.9744-13.8132,16.1672c-1.2428,1.3735-3.386,1.7818-4.478,0.5789
		c-1.0915-1.2081-0.72-3.5741,0.5233-4.9476C9.8727,24.0285,20.7156,12.966,20.7156,12.966"/>
	<path class="st0" d="M20.7156,12.966c0.0355-0.9171,0.1275-1.9661,0.1208-3.124c0.4939-8.0129,9.8475-9.4942,12.1406-6.9629"/>
	<path class="st0" d="M23.8451,16.4217c0.8308-0.0398,1.7816-0.1392,2.8272-0.134c7.2564-0.5454,8.5991-10.8751,6.3047-13.4086"/>
	<path class="st0" d="M14.6644,19.2253c-0.8418-1.0626-2.2324-3.1752-2.2324-3.1752"/>
	<path class="st0" d="M21.1094,19.6053c3.0306,2.9722,6.6398,6.5703,8.6011,8.7364c1.2436,1.3724,1.6147,3.7394,0.5232,4.9445
		c-1.0915,1.207-3.2353,0.7955-4.4784-0.5769c-1.8987-2.097-5.0108-5.8983-7.6493-9.1761"/>
	<path class="st0" d="M14.626,13.6276c0.001,0,1.9637,1.5828,2.9926,2.5784"/>
	<path class="st0" d="M7.7308,1c1.2309,1.3609,3.7481,4.1405,4.697,5.1873c1.2759,1.4102,1.7541,2.3367,1.8228,3.5333
		c0.0541,0.9077,0.2976,3.1501,0.3754,3.9071"/>
	<line class="st0" x1="6.1871" y1="14.1646" x2="12.9179" y2="6.7296"/>
	<path class="st0" d="M12.4321,16.0501c-0.6669-0.0837-2.7016-0.3538-3.5373-0.4146c-1.0825-0.0764-1.9233-0.603-3.1993-2.0142
		C4.7467,12.5723,2.2309,9.795,1,8.435"/>
	<line class="st0" x1="3.2438" y1="5.9559" x2="8.2707" y2="11.5118"/>
	<line class="st0" x1="5.4875" y1="3.479" x2="10.5144" y2="9.0318"/>
</g>
</svg>
