<?xml version="1.0" encoding="utf-8"?>
<!-- Generator: Adobe Illustrator 25.4.1, SVG Export Plug-In . SVG Version: 6.00 Build 0)  -->
<svg version="1.1" id="Layer_1" xmlns="http://www.w3.org/2000/svg" xmlns:xlink="http://www.w3.org/1999/xlink" x="0px" y="0px"
	 width="30px" height="30px" viewBox="0 0 30 30" style="enable-background:new 0 0 30 30;" xml:space="preserve">
<g>
	<path d="M6.3,29.9c-0.9,0-1.7-0.3-2.2-0.9c-1.4-1.5-0.9-4.1,0.4-5.5c3.2-3.5,12.4-12.9,12.4-13c0.4-0.4,1-0.4,1.4,0
		c0.4,0.4,0.4,1,0,1.4C18.4,11.9,9.2,21.3,6,24.8c-0.7,0.8-1,2.3-0.4,2.9c0.2,0.2,0.4,0.3,0.7,0.3c0,0,0,0,0,0
		c0.5,0,1.2-0.3,1.6-0.8c3.2-3.5,11.6-13.6,11.7-13.7c0.4-0.4,1-0.5,1.4-0.1c0.4,0.4,0.5,1,0.1,1.4c-0.1,0.1-8.5,10.2-11.7,13.7
		C8.6,29.4,7.4,29.9,6.3,29.9C6.3,29.9,6.3,29.9,6.3,29.9z"/>
	<path d="M17.7,12.2C17.7,12.2,17.7,12.2,17.7,12.2c-0.6,0-1-0.5-1-1c0-0.3,0-0.5,0-0.8c0-0.6,0.1-1.2,0.1-1.8
		C17,5,19.1,2.3,22.4,1.1c2.6-0.9,5.3-0.6,6.5,0.8c0.4,0.4,0.3,1-0.1,1.4c-0.4,0.4-1,0.3-1.4-0.1C26.8,2.6,25,2.3,23,3
		c-1.2,0.4-4,1.8-4.2,5.5c0,0.6,0,1.3-0.1,1.9c0,0.3,0,0.5,0,0.8C18.7,11.7,18.3,12.2,17.7,12.2z"/>
	<path d="M20.4,15.1c-0.5,0-1-0.4-1-1c0-0.6,0.4-1,1-1c0.2,0,0.4,0,0.7,0c0.5,0,1.1-0.1,1.8-0.1c2.7-0.2,4-2.5,4.6-3.8
		c1-2.6,0.7-5.2,0.1-5.9c-0.4-0.4-0.3-1,0.1-1.4c0.4-0.4,1-0.3,1.4,0.1c1.4,1.5,1.5,5,0.3,8c-1.2,3-3.5,4.8-6.3,5c0,0,0,0,0,0
		c-0.7,0-1.2,0-1.7,0.1C20.9,15.1,20.7,15.1,20.4,15.1C20.4,15.1,20.4,15.1,20.4,15.1z"/>
	<path d="M12.6,17.5c-0.3,0-0.6-0.1-0.8-0.4c-0.7-0.9-1.9-2.7-1.9-2.8c-0.3-0.5-0.2-1.1,0.3-1.4c0.5-0.3,1.1-0.2,1.4,0.3
		c0,0,1.2,1.8,1.8,2.6c0.3,0.4,0.3,1.1-0.2,1.4C13,17.4,12.8,17.5,12.6,17.5z"/>
	<path d="M24.3,30c-1.1,0-2.3-0.5-3.1-1.4c-1.3-1.5-3.5-4.1-6.5-7.8c-0.3-0.4-0.3-1.1,0.2-1.4c0.4-0.3,1.1-0.3,1.4,0.2
		c2.9,3.6,5.1,6.3,6.5,7.7c0.4,0.5,1,0.8,1.6,0.8c0,0,0,0,0,0c0.3,0,0.6-0.1,0.7-0.3c0.5-0.6,0.3-2-0.4-2.9c-1.3-1.5-3.8-4-7.3-7.4
		c-0.4-0.4-0.4-1,0-1.4c0.4-0.4,1-0.4,1.4,0c3.5,3.4,6,5.9,7.3,7.5c1.3,1.5,1.8,4,0.4,5.5C26,29.7,25.2,30,24.3,30
		C24.3,30,24.3,30,24.3,30z"/>
	<path d="M15.1,14.9c-0.3,0-0.5-0.1-0.7-0.3c-0.8-0.8-2.4-2-2.5-2.1c-0.2-0.2-0.4-0.5-0.4-0.8c0-0.6,0.4-1,1-1
		c0.5,0,1.5,0.8,3.2,2.5c0.4,0.4,0.4,1,0,1.4C15.6,14.8,15.4,14.9,15.1,14.9z"/>
	<path d="M12.6,12.7c-0.5,0-0.9-0.4-1-0.9l0-0.4c-0.1-0.8-0.2-2.3-0.3-2.9c0-0.7-0.3-1.2-1.3-2.4L6,1.7C5.6,1.3,5.6,0.6,6,0.3
		c0.4-0.4,1-0.3,1.4,0.1l4,4.4c1.2,1.4,1.7,2.4,1.8,3.6c0,0.6,0.2,2,0.3,2.9l0,0.4c0.1,0.5-0.3,1-0.9,1.1
		C12.6,12.7,12.6,12.7,12.6,12.7z"/>
	<path d="M5.4,13.2c-0.2,0-0.5-0.1-0.7-0.3c-0.4-0.4-0.4-1-0.1-1.4l5.7-6.3c0.4-0.4,1-0.4,1.4-0.1c0.4,0.4,0.4,1,0.1,1.4l-5.7,6.3
		C5.9,13.1,5.7,13.2,5.4,13.2z"/>
	<path d="M10.7,14.8c0,0-0.1,0-0.1,0l-0.3,0c-0.7-0.1-2-0.3-2.6-0.3c-1.4-0.1-2.3-0.9-3.4-2L0.3,8c-0.4-0.4-0.3-1,0.1-1.4
		c0.4-0.4,1-0.3,1.4,0.1l4,4.4c1,1.1,1.5,1.3,2,1.4c0.6,0,1.9,0.2,2.7,0.3l0.3,0c0.5,0.1,0.9,0.6,0.9,1.1
		C11.6,14.4,11.2,14.8,10.7,14.8z"/>
	<path d="M7.2,10.9c-0.3,0-0.5-0.1-0.7-0.3L2.2,5.9c-0.4-0.4-0.3-1,0.1-1.4c0.4-0.4,1-0.3,1.4,0.1l4.3,4.7c0.4,0.4,0.3,1-0.1,1.4
		C7.6,10.8,7.4,10.9,7.2,10.9z"/>
	<path d="M9.1,8.8c-0.3,0-0.5-0.1-0.7-0.3L4.1,3.8c-0.4-0.4-0.3-1,0.1-1.4C4.5,2,5.2,2,5.5,2.4l4.3,4.7c0.4,0.4,0.3,1-0.1,1.4
		C9.6,8.7,9.3,8.8,9.1,8.8z"/>
</g>
</svg>
