<?xml version="1.0" encoding="utf-8"?>
<!-- Generator: Adobe Illustrator 25.4.1, SVG Export Plug-In . SVG Version: 6.00 Build 0)  -->
<svg version="1.1" id="Layer_1" xmlns:v="https://vecta.io/nano"
	 xmlns="http://www.w3.org/2000/svg" xmlns:xlink="http://www.w3.org/1999/xlink" x="0px" y="0px" viewBox="0 0 30 30"
	 style="enable-background:new 0 0 30 30;" xml:space="preserve">
<path d="M24.4,0H5.6C2.5,0,0,2.5,0,5.6c0,0,0,0,0,0v18.8C0,27.5,2.5,30,5.6,30c0,0,0,0,0,0h18.8c3.1,0,5.6-2.5,5.6-5.6c0,0,0,0,0,0
	V5.6C30,2.5,27.5,0,24.4,0C24.4,0,24.4,0,24.4,0z M23.6,16.2h-2.8v10.4h-4.7V16.2h-1.8v-3.5h1.8v-2.2c0-2.9,1.2-4.7,4.7-4.7h3.5v3.5
	h-2c-1.3,0-1.4,0.5-1.4,1.4v2H24L23.6,16.2z"/>
</svg>
