<?xml version="1.0" encoding="utf-8"?>
<!-- Generator: Adobe Illustrator 25.4.1, SVG Export Plug-In . SVG Version: 6.00 Build 0)  -->
<svg version="1.1" id="Layer_1" xmlns:v="https://vecta.io/nano"
	 xmlns="http://www.w3.org/2000/svg" xmlns:xlink="http://www.w3.org/1999/xlink" x="0px" y="0px" viewBox="0 0 30 30"
	 style="enable-background:new 0 0 30 30;" xml:space="preserve">
<path d="M30,5.8c-1.2,0.5-2.3,0.8-3.5,0.9c1.3-0.8,2.2-2,2.7-3.4C28,4,26.6,4.5,25.3,4.9c-2.3-2.5-6.2-2.6-8.6-0.2
	c-1.6,1.5-2.2,3.7-1.8,5.8c-5-0.4-9.6-2.7-12.7-6.4c-1.6,2.8-0.8,6.3,1.9,8.2c-0.9,0-2-0.2-2.8-0.8l0,0c0,2.9,2.1,5.5,4.9,6
	c-0.6,0.1-1.1,0.2-1.6,0.2c-0.4,0-0.8,0-1.2-0.1c0.8,2.5,3.2,4.2,5.7,4.2c-2.2,1.7-4.9,2.7-7.6,2.6c-0.5,0-0.9,0-1.5-0.1
	c2.8,1.8,6.1,2.8,9.3,2.8c9.6,0.1,17.4-7.6,17.4-17.2V9.7V8.9C28.1,8,29.2,7,30,5.8"/>
</svg>
