<svg xmlns="http://www.w3.org/2000/svg" width="48.712" height="54.39" viewBox="0 0 48.712 54.39"><path d="M426.014,300.014l-8.633-11.785a1.614,1.614,0,0,1,.086-2,18.211,18.211,0,1,0-6.836,5,1.62,1.62,0,0,1,1.944.523l8.629,11.78a1.613,1.613,0,0,0,2.253.348l2.208-1.612A1.609,1.609,0,0,0,426.014,300.014Zm-13.428-13.292a15.163,15.163,0,0,1-9,2.943,15.25,15.25,0,0,1-9.03-27.56,15.167,15.167,0,0,1,9-2.943,15.249,15.249,0,0,1,9.03,27.56Z" transform="matrix(0.985, -0.174, 0.174, 0.985, -423.958, -178.264)"/></svg>