<?xml version="1.0" encoding="utf-8"?>
<!-- Generator: Adobe Illustrator 25.4.1, SVG Export Plug-In . SVG Version: 6.00 Build 0)  -->
<svg version="1.1" id="Layer_1" xmlns="http://www.w3.org/2000/svg" xmlns:xlink="http://www.w3.org/1999/xlink" x="0px" y="0px"
	 width="30px" height="30px" viewBox="0 0 30 30" style="enable-background:new 0 0 30 30;" xml:space="preserve">
<style type="text/css">
	.st0{fill:#FFFFFF;}
</style>
<g>
	<path d="M27.1,30H2.9C1.3,30,0,28.7,0,27.1V13.4c0-1.4,0.8-3.1,1.9-3.9l11-8.7c1.2-0.9,3.1-0.9,4.3,0h0l11,8.7
		c1.1,0.9,1.9,2.5,1.9,3.9v13.7C30,28.7,28.7,30,27.1,30z M15,2c-0.3,0-0.7,0.1-0.9,0.3L3.1,11C2.5,11.5,2,12.6,2,13.4v13.7
		C2,27.6,2.4,28,2.9,28h24.2c0.5,0,0.9-0.4,0.9-0.9V13.4c0-0.8-0.5-1.9-1.1-2.3l-11-8.7C15.7,2.1,15.3,2,15,2z"/>
</g>
<g>
	<polyline class="st0" points="5.1,14.9 5.1,5.2 24.9,5.2 24.9,14.9 	"/>
	<path d="M24.9,15.9c-0.6,0-1-0.4-1-1V6.2H6.1v8.7c0,0.6-0.4,1-1,1s-1-0.4-1-1V5.2c0-0.6,0.4-1,1-1h19.7c0.6,0,1,0.4,1,1v9.7
		C25.9,15.5,25.4,15.9,24.9,15.9z"/>
</g>
<g>
	<path d="M15,23.8c-0.8,0-1.5-0.3-2.1-0.8L0.6,12.4c-0.4-0.4-0.5-1-0.1-1.4c0.4-0.4,1-0.5,1.4-0.1l12.3,10.6c0.4,0.4,1.2,0.4,1.6,0
		L28,11c0.4-0.4,1-0.3,1.4,0.1c0.4,0.4,0.3,1-0.1,1.4L17.1,23C16.5,23.5,15.8,23.8,15,23.8z"/>
</g>
<g>
	<path class="st0" d="M2.9,29c-1.1,0-1.3-0.6-0.4-1.2l11-9.1c0.8-0.7,2.1-0.7,3,0l11,9.1c0.8,0.7,0.6,1.2-0.4,1.2H2.9z"/>
	<path d="M27.1,30H2.9c-1.3,0-1.7-0.6-1.9-1s-0.2-1.1,0.8-2l11-9.1c1.2-1,3.1-1,4.2,0l11,9.1c1,0.8,0.9,1.6,0.8,2
		C28.8,29.4,28.4,30,27.1,30z M3.8,28h22.5l-10.4-8.6c-0.4-0.4-1.2-0.4-1.7,0L3.8,28z"/>
</g>
<g>
	<path d="M15,14.5c-1.5,0-2.7-1.2-2.7-2.8S13.5,9,15,9c1.5,0,2.7,1.2,2.7,2.8S16.5,14.5,15,14.5z M15,11c-0.4,0-0.7,0.3-0.7,0.8
		s0.3,0.8,0.7,0.8c0.4,0,0.7-0.3,0.7-0.8S15.4,11,15,11z"/>
	<path d="M17.9,14.5c-0.1,0-0.2,0-0.4,0c-1.8-0.3-1.8-2.1-1.8-2.7c0-0.6,0.4-1,1-1s1,0.4,1,1c0,0.6,0.1,0.8,0.1,0.8
		c0.1-0.1,0.2-0.3,0.2-0.6c0-0.6,0.4-1,1-1s1,0.4,1,1c0,0.9-0.3,1.7-0.9,2.1C18.8,14.3,18.3,14.5,17.9,14.5z"/>
	<path d="M15,16.7c-2.8,0-5-2.3-5-5s2.3-5,5-5c2.8,0,5,2.3,5,5c0,0.6-0.4,1-1,1s-1-0.4-1-1c0-1.7-1.4-3-3-3s-3,1.4-3,3s1.4,3,3,3
		c0.6,0,1,0.4,1,1C16,16.3,15.6,16.7,15,16.7z"/>
</g>
</svg>
