<?xml version="1.0" encoding="utf-8"?>
<!-- Generator: Adobe Illustrator 25.4.1, SVG Export Plug-In . SVG Version: 6.00 Build 0)  -->
<svg version="1.1" id="Layer_1" xmlns="http://www.w3.org/2000/svg" xmlns:xlink="http://www.w3.org/1999/xlink" x="0px" y="0px"
	 width="25px" height="25px" viewBox="0 0 25 25" style="enable-background:new 0 0 25 25;" xml:space="preserve">
<style type="text/css">
	.st0{fill:none;stroke:#000000;stroke-width:2;stroke-linecap:round;stroke-linejoin:round;stroke-miterlimit:10;}
</style>
<g>
	<polygon class="st0" points="19.6,24 22.9,24 22.9,18.2 19.6,15 16.4,18.2 16.4,24 	"/>
	<line class="st0" x1="12.1" y1="4.6" x2="8.7" y2="4.6"/>
	<polyline class="st0" points="5.3,4.6 2.8,4.6 1,7.4 2.8,10.1 12.1,10.1 	"/>
	<polyline class="st0" points="5.3,4.6 7,6.4 8.7,4.6 	"/>
	<path class="st0" d="M19.6,5.6c-1,0-1.8,0.8-1.8,1.8c0,1,0.8,1.8,1.8,1.8c1,0,1.8-0.8,1.8-1.8C21.4,6.4,20.6,5.6,19.6,5.6z"/>
	<path class="st0" d="M16.8,13.6c-2.1-0.3-3.9-1.7-4.7-3.6"/>
	<path class="st0" d="M11.5,6.6c0.4-3.2,3-5.6,6.2-5.6C21.2,1,24,3.8,24,7.4c0,1.8-0.7,3.4-1.9,4.6"/>
	<line class="st0" x1="19.6" y1="9.1" x2="19.6" y2="15"/>
</g>
</svg>
