<?xml version="1.0" encoding="utf-8"?>
<!-- Generator: Adobe Illustrator 25.4.1, SVG Export Plug-In . SVG Version: 6.00 Build 0)  -->
<svg version="1.1" id="Layer_1" xmlns="http://www.w3.org/2000/svg" xmlns:xlink="http://www.w3.org/1999/xlink" x="0px" y="0px"
	 width="25px" height="25px" viewBox="0 0 25 25" style="enable-background:new 0 0 25 25;" xml:space="preserve">
<style type="text/css">
	.st0{fill:#FFFFFF;}
</style>
<g id="linked-in-icon" transform="translate(0.001 0)">
	<path id="Path_2525" class="st0" d="M23.8,21.8c0.2,0,0.4-0.2,0.4-0.4l0,0c0-0.3-0.2-0.4-0.5-0.4H23v1.5h0.2v-0.7h0.3l0,0l0.4,0.7
		h0.2L23.8,21.8L23.8,21.8z M23.5,21.6h-0.3v-0.5h0.3c0.2,0,0.4,0,0.4,0.2C23.9,21.6,23.8,21.6,23.5,21.6"/>
	<path id="Path_2520" class="st0" d="M18,19.9h-3.1V15c0-1.2,0-2.7-1.6-2.7s-1.9,1.3-1.9,2.6v5H8.2V9.8h3v1.4l0,0
		c0.6-1,1.8-1.7,3-1.6c3.2,0,3.8,2.1,3.8,4.8V19.9z M4.7,8.4c-1,0-1.8-0.8-1.8-1.8s0.8-1.8,1.8-1.8s1.8,0.8,1.8,1.8l0,0
		C6.5,7.6,5.7,8.4,4.7,8.4 M6.3,19.9H3.1V9.8h3.1v10.1H6.3z M19.6,1.9h-18C0.7,1.8,0,2.5,0,3.4l0,0v18.1C0,22.3,0.7,23,1.6,23h18
		c0.9,0,1.6-0.7,1.6-1.5V3.4C21.1,2.5,20.4,1.8,19.6,1.9"/>
	<path id="Path_2526" class="st0" d="M23.5,20.3c-0.8,0-1.4,0.7-1.4,1.5s0.7,1.4,1.5,1.4s1.4-0.7,1.4-1.5S24.4,20.3,23.5,20.3
		L23.5,20.3 M23.5,23c-0.7,0-1.3-0.5-1.3-1.2s0.5-1.3,1.2-1.3s1.3,0.5,1.3,1.2l0,0C24.8,22.4,24.3,23,23.5,23L23.5,23"/>
</g>
</svg>
