<?xml version="1.0" encoding="utf-8"?>
<!-- Generator: Adobe Illustrator 25.4.1, SVG Export Plug-In . SVG Version: 6.00 Build 0)  -->
<svg version="1.1" id="icons8-instagram" xmlns="http://www.w3.org/2000/svg" xmlns:xlink="http://www.w3.org/1999/xlink" x="0px"
	 y="0px" width="25px" height="25px" viewBox="0 0 25 25" style="enable-background:new 0 0 25 25;" xml:space="preserve">
<style type="text/css">
	.st0{fill:#FFFFFF;}
</style>
<g>
	<path id="Path_90" class="st0" d="M7.2,0C3.3,0,0,3.3,0,7.2v10.5c0,4,3.3,7.3,7.2,7.3h10.5c4.1,0,7.2-3.3,7.2-7.2V7.2
		C25.2,3.3,21.9,0,18,0H7.2z M7.2,1.9h10.5c3,0,5.4,2.4,5.4,5.3l0,0v10.5c0,3-2.4,5.3-5.3,5.3l0,0H7.2c-2.9,0.1-5.3-2.3-5.3-5.2l0,0
		V7.2C1.9,4.3,4.3,1.9,7.2,1.9L7.2,1.9z M19.9,3.8c-0.8,0-1.4,0.7-1.4,1.4s0.7,1.4,1.4,1.4c0.8,0,1.4-0.7,1.4-1.4S20.7,3.8,19.9,3.8
		z M12.5,5.8c-3.8,0-6.8,3-6.8,6.7s3,6.7,6.8,6.7s6.8-3,6.8-6.7S16.4,5.8,12.5,5.8z M12.5,7.7c2.7,0,4.8,2.1,4.8,4.8
		s-2.1,4.8-4.8,4.8s-4.8-2.1-4.8-4.8S9.8,7.7,12.5,7.7L12.5,7.7z"/>
</g>
</svg>
