<?xml version="1.0" encoding="utf-8"?>
<!-- Generator: Adobe Illustrator 25.4.1, SVG Export Plug-In . SVG Version: 6.00 Build 0)  -->
<svg version="1.1" id="Layer_1" xmlns="http://www.w3.org/2000/svg" xmlns:xlink="http://www.w3.org/1999/xlink" x="0px" y="0px"
	 width="30px" height="30px" viewBox="0 0 30 30" style="enable-background:new 0 0 30 30;" xml:space="preserve">
<g>
	<path d="M25.4,30H11c-2,0-3.6-1.5-3.7-3.4l-0.9-20c0-0.6,0.4-1,1-1c0.5,0,1,0.4,1,1l0.9,20c0,0.8,0.8,1.5,1.7,1.5h14.4
		c0.9,0,1.7-0.6,1.7-1.5L28,8.1H10.2c-0.6,0-1-0.4-1-1s0.4-1,1-1H29c0.3,0,0.5,0.1,0.7,0.3C29.9,6.6,30,6.8,30,7.1l-0.9,19.5
		C29,28.5,27.4,30,25.4,30z"/>
	<path d="M22.5,26h-8.7c-3.3,0-6-2.3-6.4-5.4l-0.7-5.7c-0.1-0.5,0.3-1,0.9-1.1c0.5-0.1,1,0.3,1.1,0.9l0.7,5.7
		c0.2,2.1,2.1,3.6,4.4,3.6h8.7c2.2,0,4.1-1.6,4.4-3.6l0.7-5.7c0.1-0.5,0.6-0.9,1.1-0.9c0.5,0.1,0.9,0.6,0.9,1.1l-0.7,5.7
		C28.5,23.7,25.8,26,22.5,26z"/>
	<path d="M17.2,12.4H8.1c-0.6,0-1-0.4-1-1s0.4-1,1-1h9.1c0.6,0,1,0.4,1,1S17.7,12.4,17.2,12.4z"/>
	<path d="M28.5,12.4h-2.7c-0.6,0-1-0.4-1-1s0.4-1,1-1h2.7c0.6,0,1,0.4,1,1S29,12.4,28.5,12.4z"/>
	<g>
		<path d="M7.2,4.6c-0.6,0-1-0.4-1-1V1.3c0-0.6,0.4-1,1-1s1,0.4,1,1v2.3C8.2,4.2,7.7,4.6,7.2,4.6z"/>
		<g>
			<path d="M4.7,13.1c-0.1,0-0.3,0-0.4-0.1c-0.7-0.3-1.4-0.7-2-1.2C0.9,10.5,0,8.7,0,6.8C0,3.1,3.2,0,7.2,0c2.8,0,5.2,1.5,6.5,3.8
				c0.3,0.5,0.1,1.1-0.4,1.3c-0.5,0.3-1.1,0.1-1.3-0.4C11,3.1,9.2,2,7.2,2C4.3,2,2,4.2,2,6.8c0,1.3,0.6,2.6,1.6,3.5
				c0.4,0.4,0.9,0.7,1.5,0.9c0.5,0.2,0.8,0.8,0.5,1.3C5.5,12.9,5.1,13.1,4.7,13.1z"/>
			<path d="M4.1,7.5H1.6c-0.6,0-1-0.4-1-1s0.4-1,1-1h2.5c0.6,0,1,0.4,1,1S4.6,7.5,4.1,7.5z"/>
			<path d="M7.2,7.5c-0.2,0-0.5-0.1-0.7-0.3L2.6,3.6c-0.4-0.4-0.4-1,0-1.4c0.4-0.4,1-0.4,1.4,0l3.9,3.7c0.4,0.4,0.4,1,0,1.4
				C7.7,7.4,7.5,7.5,7.2,7.5z"/>
			<path d="M3.3,11.2c-0.3,0-0.5-0.1-0.7-0.3c-0.4-0.4-0.4-1,0-1.4l7.9-7.4c0.4-0.4,1-0.4,1.4,0c0.4,0.4,0.4,1,0,1.4L3.9,11
				C3.7,11.1,3.5,11.2,3.3,11.2z"/>
		</g>
	</g>
	<path d="M16.3,23.2c-0.1,0-0.2,0-0.3,0l-5.1-1.5c-0.3-0.1-0.5-0.3-0.6-0.5c-0.1-0.2-0.2-0.5-0.1-0.8l1.6-4.8
		c0.2-0.5,0.7-0.8,1.2-0.6l5.1,1.5c0.3,0.1,0.5,0.3,0.6,0.5c0.1,0.2,0.2,0.5,0.1,0.8l-1.6,4.8C17.1,23,16.7,23.2,16.3,23.2z
		 M12.5,20.1l3.1,0.9l0.9-2.9l-3.1-0.9L12.5,20.1z"/>
	<path d="M21.5,18.4c-0.2,0-0.5-0.1-0.7-0.3L17,14.6c-0.2-0.2-0.3-0.5-0.3-0.7s0.1-0.5,0.3-0.7l3.8-3.5c0.4-0.4,1-0.4,1.4,0l3.8,3.5
		c0.2,0.2,0.3,0.5,0.3,0.7s-0.1,0.5-0.3,0.7l-3.8,3.5C22,18.3,21.7,18.4,21.5,18.4z M19.2,13.9l2.3,2.1l2.3-2.1l-2.3-2.1L19.2,13.9z
		"/>
</g>
</svg>
