<?xml version="1.0" encoding="utf-8"?>
<!-- Generator: Adobe Illustrator 25.4.1, SVG Export Plug-In . SVG Version: 6.00 Build 0)  -->
<svg version="1.1" id="Layer_1" xmlns="http://www.w3.org/2000/svg" xmlns:xlink="http://www.w3.org/1999/xlink" x="0px" y="0px"
	 width="30px" height="30px" viewBox="0 0 30 30" style="enable-background:new 0 0 30 30;" xml:space="preserve">
<g>
	<g>
		<path d="M29,14.9C29,14.9,29,14.9,29,14.9c-0.6,0-1-0.5-1-1c0-3.1-1.2-6.1-3.4-8.3c-2.2-2.2-5.1-3.5-8.3-3.5c-0.6,0-1-0.5-1-1
			c0-0.5,0.5-1,1-1c0,0,0,0,0,0c3.7,0,7.1,1.5,9.7,4.1c2.6,2.6,4,6.1,3.9,9.8C30,14.5,29.6,14.9,29,14.9z"/>
		<path d="M23.9,14.8C23.9,14.8,23.9,14.8,23.9,14.8c-0.6,0-1-0.5-1-1c0-1.8-0.7-3.4-1.9-4.7s-2.9-2-4.6-2c-0.6,0-1-0.5-1-1
			c0-0.5,0.5-1,1-1c0,0,0,0,0,0c2.3,0,4.4,0.9,6,2.6c1.6,1.6,2.5,3.8,2.5,6.1C24.9,14.4,24.4,14.8,23.9,14.8z"/>
	</g>
	<g>
		<path d="M22,30c-2.9,0-9-2.5-14.2-7.7C2.2,16.8-0.3,10.2,0,7.6C0.4,5.1,2.2,2,4.6,1.3c2.7-0.8,3.7,1.2,4.7,3.1L9.7,5
			c1.3,2.5,2.4,4.6,1.2,5.9c-0.4,0.4-1,0.8-1.4,1.1c0.5,1,1.6,2.9,3.7,5c2.1,2.1,4,3.2,5,3.7c0.3-0.4,0.6-1,1-1.4
			c1.2-1.3,3.4-0.1,5.9,1.1l0.6,0.3c1.9,1,4,2,3.2,4.7c-0.7,2.5-3.8,4.3-6.3,4.6C22.4,30,22.2,30,22,30z M5.8,3.1
			c-0.2,0-0.3,0-0.6,0.1C3.6,3.7,2.3,6.1,2,7.9c-0.2,1.5,1.6,7.4,7.2,13c5.6,5.6,11.5,7.3,13,7.1c1.8-0.2,4.2-1.6,4.7-3.2
			c0.3-1,0.1-1.2-2.1-2.3l-0.6-0.3c-1.2-0.6-3.1-1.6-3.7-1.4c-0.4,0.5-0.9,1.3-1,1.6c-0.2,0.5-0.7,0.7-1.2,0.5c-0.1,0-3.1-1-6.6-4.5
			c-3.5-3.5-4.5-6.4-4.5-6.6c-0.2-0.5,0.1-1,0.5-1.2C8,10.5,8.9,10,9.4,9.5C9.5,9,8.5,7.1,7.9,5.9L7.6,5.3C6.7,3.6,6.4,3.1,5.8,3.1z
			"/>
	</g>
</g>
</svg>
