<?xml version="1.0" encoding="utf-8"?>
<!-- Generator: Adobe Illustrator 25.4.1, SVG Export Plug-In . SVG Version: 6.00 Build 0)  -->
<svg version="1.1" id="Layer_1" xmlns:v="https://vecta.io/nano"
	 xmlns="http://www.w3.org/2000/svg" xmlns:xlink="http://www.w3.org/1999/xlink" x="0px" y="0px" width="25px" height="25px"
	 viewBox="0 0 25 25" style="enable-background:new 0 0 25 25;" xml:space="preserve">
<style type="text/css">
	.st0{fill:#FFFFFF;}
</style>
<path class="st0" d="M20.2,0H4.7C2.1,0,0,2.1,0,4.7v15.7C0,22.9,2.1,25,4.7,25h15.6c2.6,0,4.7-2.1,4.7-4.7V4.7
	C24.9,2.1,22.8,0,20.2,0z M19.6,13.5h-2.4v8.7h-3.8v-8.7h-1.5v-2.9h1.5V8.7c0-2.4,1.1-3.8,3.8-3.8h2.9v2.9h-1.7
	c-1.1,0-1.1,0.5-1.1,1.2v1.6H20L19.6,13.5z"/>
</svg>
