<?xml version="1.0" encoding="utf-8"?>
<!-- Generator: Adobe Illustrator 25.4.1, SVG Export Plug-In . SVG Version: 6.00 Build 0)  -->
<svg version="1.1" id="Layer_1" xmlns="http://www.w3.org/2000/svg" xmlns:xlink="http://www.w3.org/1999/xlink" x="0px" y="0px"
	 width="30px" height="30px" viewBox="0 0 30 30" style="enable-background:new 0 0 30 30;" xml:space="preserve">
<style type="text/css">
	.st0{fill:none;stroke:#000000;stroke-width:2;stroke-linecap:round;stroke-linejoin:round;stroke-miterlimit:10;}
</style>
<g>
	<g>
		<path class="st0" d="M16.4,1c7,0.1,12.7,5.8,12.6,12.9"/>
		<path class="st0" d="M16.4,6.2c4.2,0,7.6,3.5,7.5,7.7"/>
	</g>
	<g>
		<path class="st0" d="M12.4,17.7c-3.4-3.4-4.3-6.2-4.3-6.2s1.2-0.6,2-1.3c0.7-0.7-0.3-2.7-1.3-4.7C7.6,3.2,7,1.6,4.9,2.2
			C2.8,2.9,1.3,5.7,1,7.8c-0.3,2.1,1.9,8.3,7.5,13.8c5.6,5.5,11.8,7.7,13.9,7.4c2.1-0.3,4.9-1.8,5.5-3.9c0.6-2.1-1-2.7-3.2-3.8
			c-2.1-1-4-2-4.8-1.3c-0.7,0.7-1.3,2-1.3,2S15.8,21,12.4,17.7z"/>
	</g>
</g>
</svg>
