<?xml version="1.0" encoding="utf-8"?>
<!-- Generator: Adobe Illustrator 25.4.1, SVG Export Plug-In . SVG Version: 6.00 Build 0)  -->
<svg version="1.1" id="Layer_1" xmlns="http://www.w3.org/2000/svg" xmlns:xlink="http://www.w3.org/1999/xlink" x="0px" y="0px"
	 width="30px" height="30px" viewBox="0 0 30 30" style="enable-background:new 0 0 30 30;" xml:space="preserve">
<style type="text/css">
	.st0{fill:#FFFFFF;}
</style>
<g id="website-white-icon" transform="translate(-66.769 -178.246)">
	<g>
		<circle id="Ellipse_35_00000081621536879250941920000011237671202431519138_" class="st0" cx="81.8" cy="193.2" r="14"/>
		<path d="M81.8,208.2c-8.3,0-15-6.7-15-15c0-8.3,6.7-15,15-15c8.3,0,15,6.7,15,15C96.8,201.5,90,208.2,81.8,208.2z M81.8,180.2
			c-7.2,0-13,5.8-13,13c0,7.2,5.8,13,13,13c7.2,0,13-5.8,13-13C94.8,186.1,88.9,180.2,81.8,180.2z"/>
	</g>
	<g>
		<ellipse id="Ellipse_36_00000088096115732646800910000005380596299276391596_" class="st0" cx="81.8" cy="193.2" rx="8" ry="14"/>
		<path d="M81.8,208.2c-5,0-9-6.6-9-15s4-15,9-15s9,6.6,9,15S86.8,208.2,81.8,208.2z M81.8,180.2c-3.8,0-7,6-7,13s3.2,13,7,13
			c3.8,0,7-6,7-13S85.6,180.2,81.8,180.2z"/>
	</g>
	<path d="M94.1,189.1H69.4c-0.6,0-1-0.4-1-1s0.4-1,1-1h24.7c0.6,0,1,0.4,1,1S94.6,189.1,94.1,189.1z"/>
	<path d="M94.1,199.5H69.4c-0.6,0-1-0.4-1-1s0.4-1,1-1h24.7c0.6,0,1,0.4,1,1S94.6,199.5,94.1,199.5z"/>
</g>
</svg>
