<?xml version="1.0" encoding="utf-8"?>
<!-- Generator: Adobe Illustrator 25.4.1, SVG Export Plug-In . SVG Version: 6.00 Build 0)  -->
<svg version="1.1" id="Layer_1" xmlns="http://www.w3.org/2000/svg" xmlns:xlink="http://www.w3.org/1999/xlink" x="0px" y="0px"
	 viewBox="0 0 35 35" style="enable-background:new 0 0 35 35;" xml:space="preserve">
<style type="text/css">
	.st0{fill:none;stroke:#000000;stroke-width:2;stroke-linecap:round;stroke-linejoin:round;stroke-miterlimit:10;}
	.st1{fill:none;stroke:#000000;stroke-width:2;stroke-linecap:round;stroke-linejoin:round;}
	.st2{fill:#FFFFFF;stroke:#000000;stroke-width:2;stroke-linecap:round;stroke-linejoin:round;stroke-miterlimit:10;}
	.st3{fill:#FFFFFF;}
</style>
<g id="website-icon" transform="translate(-66.769 -178.246)">
	<path d="M84.269,213.246c-9.6494,0-17.5-7.8506-17.5-17.5s7.8506-17.5,17.5-17.5s17.5,7.8506,17.5,17.5
		S93.9184,213.246,84.269,213.246z M84.269,180.246c-8.5469,0-15.5,6.9531-15.5,15.5s6.9531,15.5,15.5,15.5s15.5-6.9531,15.5-15.5
		S92.8159,180.246,84.269,180.246z"/>
	<path d="M84.269,213.246c-4.3882,0-7.6973-7.5234-7.6973-17.5s3.3091-17.5,7.6973-17.5s7.6973,7.5234,7.6973,17.5
		S88.6572,213.246,84.269,213.246z M84.269,180.246c-2.6948,0-5.6973,6.3657-5.6973,15.5s3.0024,15.5,5.6973,15.5
		s5.6973-6.3657,5.6973-15.5S86.9638,180.246,84.269,180.246z"/>
	<path d="M99.3593,190.6005H69.1787c-0.5522,0-1-0.4478-1-1s0.4478-1,1-1h30.1807c0.5522,0,1,0.4478,1,1
		S99.9116,190.6005,99.3593,190.6005z"/>
	<path d="M99.3593,202.8915H69.1787c-0.5522,0-1-0.4478-1-1s0.4478-1,1-1h30.1807c0.5522,0,1,0.4478,1,1
		S99.9116,202.8915,99.3593,202.8915z"/>
</g>
</svg>
