<?xml version="1.0" encoding="utf-8"?>
<!-- Generator: Adobe Illustrator 23.0.1, SVG Export Plug-In . SVG Version: 6.00 Build 0)  -->
<svg version="1.1" id="icons8-youtube" xmlns="http://www.w3.org/2000/svg" xmlns:xlink="http://www.w3.org/1999/xlink" x="0px"
	 y="0px" viewBox="0 0 26 26" style="enable-background:new 0 0 26 26;" xml:space="preserve">
<path id="Path_91" d="M6.3,0.1l1.8,5.8v3.8h1.5v-4l1.7-5.7H9.8L8.9,3.9H8.8l-1-3.8H6.3z M13.2,2.4c-0.5,0-1,0.2-1.4,0.5
	c-0.4,0.3-0.6,0.8-0.5,1.3v3.7c0,0.5,0.2,1.1,0.5,1.5c0.4,0.4,0.9,0.6,1.4,0.5c0.5,0,1.1-0.2,1.4-0.5C14.9,9,15.1,8.5,15.1,8V4.3
	c0-0.5-0.2-1-0.5-1.3C14.2,2.6,13.7,2.4,13.2,2.4z M16.2,2.6v6c0,0.3,0.1,0.7,0.3,0.9c0.2,0.2,0.4,0.3,0.7,0.3
	c0.3,0,0.5-0.1,0.8-0.2c0.3-0.2,0.6-0.4,0.8-0.7v0.8H20V2.6h-1.3V8c-0.1,0.1-0.3,0.3-0.4,0.4c-0.1,0.1-0.2,0.1-0.4,0.2
	c-0.1,0-0.2,0-0.3-0.1c-0.1-0.1-0.1-0.2-0.1-0.4V2.6H16.2z M13.2,3.7c0.2,0,0.3,0,0.4,0.1c0.1,0.1,0.2,0.2,0.2,0.4v3.9
	c0,0.3-0.2,0.6-0.5,0.6c0,0-0.1,0-0.1,0c-0.2,0-0.3,0-0.4-0.2c-0.1-0.1-0.1-0.3-0.1-0.4V4.2C12.6,3.9,12.8,3.7,13.2,3.7
	C13.1,3.7,13.1,3.7,13.2,3.7z M13,11.2c-2.6,0-5.1,0-7.6,0.1c-1.7,0-3.1,1.4-3.2,3.1c-0.1,1.4-0.2,2.7-0.2,4.1s0.1,2.7,0.2,4.1
	c0,1.7,1.4,3.1,3.2,3.1c2.5,0.1,5,0.1,7.6,0.1s5.1,0,7.6-0.1c1.7,0,3.1-1.4,3.2-3.1c0.1-1.4,0.2-2.7,0.2-4.1s-0.1-2.7-0.2-4.1
	c0-1.7-1.4-3.1-3.2-3.1C18.1,11.2,15.6,11.2,13,11.2z M3.7,13.4h4.6c0.1,0,0.2,0.1,0.2,0.2V15c0,0.1-0.1,0.2-0.2,0.2H6.9v8.1
	c0,0.1,0,0.2-0.1,0.2H5.3c-0.1,0-0.2-0.1-0.2-0.2v-8.1H3.7c-0.1,0-0.1-0.1-0.1-0.2v-1.4C3.6,13.5,3.7,13.4,3.7,13.4z M13.4,13.4h1.3
	c0.1,0,0.2,0.1,0.2,0.2v2.7c0.1-0.1,0.2-0.2,0.3-0.3c0.2-0.1,0.4-0.2,0.7-0.2c0.4,0,0.8,0.2,1.1,0.5c0.3,0.4,0.4,0.9,0.4,1.4v4
	c0,0.4-0.1,0.9-0.3,1.3c-0.2,0.3-0.6,0.5-1,0.5c-0.3,0-0.5-0.1-0.8-0.2c-0.1-0.1-0.2-0.1-0.3-0.2v0.2c0,0.1-0.1,0.2-0.2,0.2h-1.3
	c-0.1,0-0.2-0.1-0.2-0.2v-9.7C13.3,13.5,13.3,13.4,13.4,13.4z M20.2,15.8c0.6,0,1.1,0.2,1.5,0.6c0.4,0.5,0.6,1.1,0.5,1.7v1.8
	c0,0.1-0.1,0.1-0.2,0.1h-2.4v1.2c0,0.2,0,0.5,0.1,0.7c0.1,0.1,0.2,0.2,0.3,0.2c0.1,0,0.3,0,0.3-0.1c0.1-0.2,0.1-0.5,0.1-0.7v-0.5
	c0-0.1,0.1-0.2,0.2-0.2h1.4c0.1,0,0.2,0.1,0.2,0.2v0.5c0,0.6-0.2,1.3-0.6,1.8c-0.4,0.4-1,0.6-1.6,0.6c-0.6,0-1.1-0.2-1.5-0.6
	c-0.4-0.5-0.6-1.1-0.6-1.7V18c0-0.6,0.2-1.2,0.6-1.6C19.1,16,19.6,15.8,20.2,15.8z M8.3,16h1.3c0.1,0,0.2,0.1,0.2,0.2v5.5
	c0,0.1,0,0.2,0,0.3c0,0,0,0.1,0.2,0.1c0.1,0,0.2-0.1,0.3-0.1c0.1-0.1,0.2-0.2,0.3-0.3v-5.4c0-0.1,0.1-0.2,0.2-0.2h1.3
	c0.1,0,0.1,0.1,0.1,0.2v7.1c0,0.1,0,0.2-0.1,0.2h-1.3c-0.1,0-0.2-0.1-0.2-0.2v-0.4c-0.2,0.2-0.3,0.3-0.5,0.4
	c-0.3,0.2-0.5,0.2-0.8,0.3c-0.3,0-0.6-0.1-0.8-0.4c-0.2-0.3-0.3-0.7-0.3-1v-6C8.2,16,8.3,16,8.3,16L8.3,16z M15.3,17.3
	c-0.1,0-0.1,0-0.2,0.1c-0.1,0-0.1,0.1-0.2,0.2v4.3C15,21.9,15,22,15.1,22c0.1,0,0.2,0.1,0.3,0.1c0.1,0,0.2,0,0.3-0.1
	c0.1-0.1,0.1-0.3,0.1-0.4v-3.7c0-0.2,0-0.3-0.1-0.5C15.5,17.3,15.4,17.3,15.3,17.3z M20.2,17.3c-0.1,0-0.3,0-0.3,0.1
	c-0.1,0.2-0.1,0.4-0.1,0.6v0.6h0.8V18c0-0.2,0-0.4-0.1-0.6C20.4,17.4,20.3,17.3,20.2,17.3z"/>
</svg>
