<?xml version="1.0" encoding="utf-8"?>
<!-- Generator: Adobe Illustrator 25.4.1, SVG Export Plug-In . SVG Version: 6.00 Build 0)  -->
<svg version="1.1" id="Layer_1" xmlns="http://www.w3.org/2000/svg" xmlns:xlink="http://www.w3.org/1999/xlink" x="0px" y="0px"
	 viewBox="0 0 35 35" style="enable-background:new 0 0 35 35;" xml:space="preserve">
<style type="text/css">
	.st0{fill:none;stroke:#000000;stroke-width:2;stroke-linecap:round;stroke-linejoin:round;stroke-miterlimit:10;}
	.st1{fill:none;stroke:#000000;stroke-width:2;stroke-linecap:round;stroke-linejoin:round;}
	.st2{fill:#FFFFFF;stroke:#000000;stroke-width:2;stroke-linecap:round;stroke-linejoin:round;stroke-miterlimit:10;}
	.st3{fill:#FFFFFF;}
</style>
<g id="address-icon" transform="translate(-206.402 -108.795)">
	<path id="Path_291" class="st1" d="M228.5656,119.1838c0.0016,2.1016-1.7007,3.8065-3.8023,3.8082
		c-2.1016,0.0016-3.8066-1.7007-3.8082-3.8023c-0.0016-2.1016,1.7007-3.8065,3.8023-3.8082c0.0013,0,0.0026,0,0.0039,0
		C226.8618,115.3809,228.5651,117.0833,228.5656,119.1838L228.5656,119.1838z"/>
	<path id="Path_292" class="st1" d="M218.1394,125.7769c-3.6558-3.6567-3.6552-9.5847,0.0015-13.2405
		c3.6567-3.6558,9.5847-3.6552,13.2405,0.0015c3.6552,3.6561,3.6552,9.5829,0,13.239l-6.6196,6.6215L218.1394,125.7769z"/>
	<g>
		<line id="Line_41" class="st1" x1="217.7368" y1="142.795" x2="229.58" y2="142.795"/>
		<line id="Line_42" class="st1" x1="236.7271" y1="124.6893" x2="240.402" y2="124.6893"/>
		<path id="Path_293" class="st1" d="M219.5671,133.7242h-7.6618c-2.49-0.0029-4.5062-2.0238-4.5033-4.5137
			c0.0028-2.4078,1.8971-4.3885,4.3024-4.4986h0.4055"/>
		<path id="Path_294" class="st1" d="M229.6178,142.7941c2.49-0.0015,4.5073-2.0213,4.5058-4.5112
			c-0.0013-2.2304-1.6334-4.1246-3.8391-4.4558h-0.4932"/>
	</g>
</g>
</svg>
