<?xml version="1.0" encoding="utf-8"?>
<!-- Generator: Adobe Illustrator 25.4.1, SVG Export Plug-In . SVG Version: 6.00 Build 0)  -->
<svg version="1.1" id="Layer_1" xmlns="http://www.w3.org/2000/svg" xmlns:xlink="http://www.w3.org/1999/xlink" x="0px" y="0px"
	 width="30px" height="30px" viewBox="0 0 30 30" style="enable-background:new 0 0 30 30;" xml:space="preserve">
<style type="text/css">
	.st0{fill:none;stroke:#000000;stroke-width:2;stroke-linecap:round;stroke-linejoin:round;}
</style>
<g id="price-range-icon" transform="translate(1.161 1.013)">
	<line id="Line_32" class="st0" x1="11.5" y1="11.6" x2="10.6" y2="10.7"/>
	<line id="Line_33" class="st0" x1="19.7" y1="19.8" x2="18.8" y2="19"/>
	<path id="Path_271" class="st0" d="M16.3,20.6c1-0.3,1.8-0.9,2.5-1.6c1.2-1.2,1.4-3,0.5-3.9c-0.7-0.6-1.6-0.8-2.4-0.5
		c-0.9,0.3-1.7,1-3.6,1.5c-0.8,0.2-1.6,0-2.3-0.5c-1-1-0.8-2.7,0.5-3.9l0,0c0.7-0.7,1.6-1.3,2.5-1.6"/>
	<g id="Group_337" transform="translate(5.273 5.277)">
		<path id="Path_272" class="st0" d="M11.3,22.7c-0.3,0-0.6-0.1-0.8-0.3L-0.9,11c-0.2-0.2-0.3-0.5-0.3-0.8L-1,0.3
			c0-0.6,0.5-1.1,1.1-1.1L10-1.1c0.3,0,0.6,0.1,0.8,0.3l11.4,11.4c0.4,0.4,0.4,1.1,0,1.6L12.1,22.4C11.9,22.6,11.6,22.7,11.3,22.7z"
			/>
	</g>
	<path id="Path_273" class="st0" d="M0.9,5.3c-1.2-1.7-1.5-3.7-0.5-4.7C1.6-0.6,4.2,0,6,1.9s2.5,4.4,1.3,5.6"/>
</g>
</svg>
