<?xml version="1.0" encoding="utf-8"?>
<!-- Generator: Adobe Illustrator 25.4.1, SVG Export Plug-In . SVG Version: 6.00 Build 0)  -->
<svg version="1.1" id="Layer_1" xmlns="http://www.w3.org/2000/svg" xmlns:xlink="http://www.w3.org/1999/xlink" x="0px" y="0px"
	 width="30px" height="30px" viewBox="0 0 30 30" style="enable-background:new 0 0 30 30;" xml:space="preserve">
<g>
	<path d="M27.6,30h-7.9c-0.6,0-1-0.4-1-1v-7c0-0.3,0.1-0.5,0.3-0.7l3.9-4c0.2-0.2,0.4-0.3,0.7-0.3l0,0c0.3,0,0.5,0.1,0.7,0.3l3.9,4
		c0.2,0.2,0.3,0.4,0.3,0.7v7C28.6,29.6,28.2,30,27.6,30z M20.8,28h5.9v-5.6l-2.9-3l-2.9,3V28z"/>
	<path d="M14.5,6.4h-4.1c-0.6,0-1-0.4-1-1s0.4-1,1-1h4.1c0.6,0,1,0.4,1,1S15,6.4,14.5,6.4z"/>
	<path d="M14.5,13.1L14.5,13.1l-11.3,0c-0.3,0-0.7-0.2-0.8-0.5L0.2,9.3c-0.2-0.3-0.2-0.8,0-1.1l2.2-3.3c0.2-0.3,0.5-0.5,0.8-0.5h3.1
		c0.6,0,1,0.4,1,1s-0.4,1-1,1H3.7L2.2,8.7l1.5,2.3l10.7,0c0.6,0,1,0.4,1,1S15,13.1,14.5,13.1z"/>
	<path d="M8.3,8.6C8,8.6,7.7,8.5,7.6,8.3l-2-2.2c-0.4-0.4-0.4-1,0-1.4c0.4-0.4,1-0.4,1.4,0l1.3,1.4l1.3-1.4c0.4-0.4,1-0.4,1.4,0
		c0.4,0.4,0.4,1,0,1.4L9,8.3C8.8,8.5,8.6,8.6,8.3,8.6z"/>
	<path d="M23.7,11.9c-0.8,0-1.6-0.3-2.2-0.9c-0.6-0.6-0.9-1.4-0.9-2.2c0-0.8,0.3-1.6,0.9-2.2c0.6-0.6,1.4-0.9,2.2-0.9l0,0h0
		c0.8,0,1.6,0.3,2.2,0.9c0.6,0.6,0.9,1.4,0.9,2.2C26.8,10.5,25.4,11.9,23.7,11.9z M23.7,7.6c-0.3,0-0.6,0.1-0.8,0.3
		c-0.2,0.2-0.3,0.5-0.3,0.8c0,0.3,0.1,0.6,0.3,0.8c0.2,0.2,0.5,0.3,0.8,0.3c0.6,0,1.1-0.5,1.1-1.2c0-0.3-0.1-0.6-0.3-0.8
		C24.3,7.7,24,7.6,23.7,7.6C23.7,7.6,23.7,7.6,23.7,7.6L23.7,7.6z"/>
	<path d="M20.3,17.4c0,0-0.1,0-0.1,0c-2.9-0.4-5.3-2.3-6.5-4.9c-0.2-0.5,0-1.1,0.5-1.3c0.5-0.2,1.1,0,1.3,0.5c0.9,2,2.8,3.5,5,3.8
		c0.5,0.1,0.9,0.6,0.8,1.1C21.2,17,20.8,17.4,20.3,17.4z"/>
	<path d="M26.7,15.3c-0.3,0-0.5-0.1-0.7-0.3c-0.4-0.4-0.4-1,0-1.4c1.3-1.3,2-3,2-4.8c0-1.8-0.7-3.5-1.9-4.8c-1.2-1.3-2.9-2-4.7-2h0
		h0c-3.4,0-6.2,2.6-6.6,5.9c-0.1,0.5-0.6,0.9-1.1,0.9c-0.5-0.1-0.9-0.6-0.9-1.1C13.4,3.3,17,0,21.4,0c0,0,0,0,0,0h0
		c2.3,0,4.5,0.9,6.1,2.6C29.1,4.2,30,6.4,30,8.7c0,2.4-0.9,4.6-2.6,6.3C27.2,15.2,27,15.3,26.7,15.3z"/>
	<path d="M23.7,19c-0.6,0-1-0.4-1-1v-7.1c0-0.6,0.4-1,1-1c0.6,0,1,0.4,1,1V18C24.7,18.5,24.3,19,23.7,19z"/>
</g>
</svg>
