<?xml version="1.0" encoding="utf-8"?>
<!-- Generator: Adobe Illustrator 25.4.1, SVG Export Plug-In . SVG Version: 6.00 Build 0)  -->
<svg version="1.1" id="Layer_1" xmlns="http://www.w3.org/2000/svg" xmlns:xlink="http://www.w3.org/1999/xlink" x="0px" y="0px"
	 width="30px" height="30px" viewBox="0 0 30 30" style="enable-background:new 0 0 30 30;" xml:space="preserve">
<style type="text/css">
	.st0{fill:none;stroke:#000000;stroke-width:2;stroke-linecap:round;stroke-linejoin:round;stroke-miterlimit:10;}
	.st1{fill:#FFFFFF;stroke:#000000;stroke-width:2;stroke-linecap:round;stroke-linejoin:round;stroke-miterlimit:10;}
	.st2{fill:#FFFFFF;}
</style>
<g>
	<path class="st0" d="M16.5,1.5c-0.8-0.7-2.2-0.7-3,0l-11,8.7C1.7,10.9,1,12.3,1,13.4v13.7C1,28.1,1.9,29,2.9,29h24.2
		c1.1,0,1.9-0.9,1.9-1.9V13.4c0-1.1-0.7-2.5-1.5-3.1L16.5,1.5z"/>
</g>
<polyline class="st1" points="5.1,14.9 5.1,5.2 24.9,5.2 24.9,14.9 "/>
<g>
	<path class="st0" d="M28.6,11.8L16.5,22.2c-0.8,0.7-2.1,0.7-2.9,0L1.3,11.7"/>
</g>
<g>
	<path class="st2" d="M2.9,29c-1.1,0-1.3-0.6-0.4-1.2l11-9.1c0.8-0.7,2.1-0.7,3,0l11,9.1c0.8,0.7,0.6,1.2-0.4,1.2H2.9z"/>
	<path class="st0" d="M2.9,29c-1.1,0-1.3-0.6-0.4-1.2l11-9.1c0.8-0.7,2.1-0.7,3,0l11,9.1c0.8,0.7,0.6,1.2-0.4,1.2H2.9z"/>
</g>
<g>
	<path class="st0" d="M16.7,11.7c0,1-0.8,1.8-1.7,1.8c-0.9,0-1.7-0.8-1.7-1.8c0-1,0.8-1.8,1.7-1.8C16,10,16.7,10.7,16.7,11.7z"/>
	<path class="st0" d="M19,11.9c0,1.2-0.7,1.7-1.4,1.6c-0.6-0.1-0.9-0.5-0.9-1.8"/>
	<path class="st0" d="M15,15.7c-2.2,0-4-1.8-4-4s1.8-4,4-4s4,1.8,4,4"/>
</g>
</svg>
