<?xml version="1.0" encoding="utf-8"?>
<!-- Generator: Adobe Illustrator 25.4.1, SVG Export Plug-In . SVG Version: 6.00 Build 0)  -->
<svg version="1.1" id="Layer_1" xmlns="http://www.w3.org/2000/svg" xmlns:xlink="http://www.w3.org/1999/xlink" x="0px" y="0px"
	 width="30px" height="30px" viewBox="0 0 30 30" style="enable-background:new 0 0 30 30;" xml:space="preserve">
<g id="price-range-icon" transform="translate(1.161 1.013)">
	<path d="M11.5,12.6c-0.3,0-0.5-0.1-0.7-0.3l-0.9-0.9c-0.4-0.4-0.4-1,0-1.4c0.4-0.4,1-0.4,1.4,0l0.9,0.9c0.4,0.4,0.4,1,0,1.4
		C12,12.5,11.7,12.6,11.5,12.6z"/>
	<path d="M19.7,20.8c-0.3,0-0.5-0.1-0.7-0.3l-0.9-0.9c-0.4-0.4-0.4-1,0-1.4c0.4-0.4,1-0.4,1.4,0l0.9,0.9c0.4,0.4,0.4,1,0,1.4
		C20.2,20.7,19.9,20.8,19.7,20.8z"/>
	<path d="M16.3,21.6c-0.4,0-0.8-0.3-0.9-0.7c-0.2-0.5,0.1-1.1,0.6-1.3c0.8-0.3,1.6-0.8,2.2-1.4c0.8-0.8,1-2,0.5-2.5
		c-0.3-0.3-0.9-0.4-1.4-0.2c-0.3,0.1-0.6,0.2-0.9,0.4c-0.6,0.3-1.5,0.8-2.8,1.1c-1.1,0.3-2.3,0-3.2-0.8c-0.6-0.6-0.9-1.4-0.9-2.3
		c0-1.1,0.5-2.2,1.4-3.1c0.8-0.8,1.8-1.5,2.9-1.8c0.5-0.2,1.1,0.1,1.3,0.6c0.2,0.5-0.1,1.1-0.6,1.3c-0.8,0.3-1.6,0.8-2.2,1.4
		c-0.5,0.5-0.8,1.1-0.8,1.7c0,0.2,0.1,0.6,0.3,0.8c0.3,0.3,0.8,0.4,1.3,0.3c1.1-0.3,1.8-0.6,2.4-0.9c0.4-0.2,0.8-0.4,1.2-0.5
		c1.1-0.4,2.4-0.2,3.4,0.7c1.4,1.4,1.2,3.8-0.4,5.4c-0.8,0.8-1.8,1.5-2.9,1.8C16.5,21.6,16.4,21.6,16.3,21.6z"/>
	<g id="Group_337" transform="translate(5.273 5.277)">
		<path d="M11.3,23.7C11.3,23.7,11.3,23.7,11.3,23.7L11.3,23.7c-0.6,0-1.1-0.2-1.5-0.6L-1.6,11.7c-0.4-0.4-0.6-1-0.6-1.6L-2,0.2
			c0-1.1,0.9-2,2.1-2.1L10-2.1c0.6,0,1.1,0.2,1.6,0.6L22.9,9.9c0.8,0.8,0.8,2.2,0,3L12.8,23.1C12.4,23.5,11.9,23.7,11.3,23.7z
			 M10.1-0.1C10.1-0.1,10.1-0.1,10.1-0.1L0.2,0.2C0.1,0.2,0,0.2,0,0.3l-0.3,9.9l11.4,11.5c0,0,0.1,0,0.1,0s0,0,0,0c0,0,0.1,0,0.1,0
			l10.2-10.2c0,0,0-0.1,0-0.2L10.1-0.1C10.1-0.1,10.1-0.1,10.1-0.1z"/>
	</g>
	<path d="M7.3,8.5c-0.3,0-0.5-0.1-0.7-0.3c-0.4-0.4-0.4-1,0-1.4C6.9,6.5,7,5.9,6.9,5.2C6.7,4.3,6.1,3.4,5.3,2.6C4.4,1.6,3.1,1,2.1,1
		c0,0,0,0,0,0c-0.4,0-0.7,0.1-1,0.3C0.6,1.9,0.8,3.4,1.8,4.7C2.1,5.1,2,5.8,1.5,6.1C1.1,6.4,0.5,6.3,0.1,5.9c-1.6-2.2-1.7-4.6-0.4-6
		C0.3-0.7,1.2-1,2.1-1c0,0,0,0,0,0c1.5,0,3.3,0.8,4.6,2.2c1,1,1.8,2.3,2.1,3.5c0.3,1.4,0,2.6-0.8,3.5C7.8,8.4,7.6,8.5,7.3,8.5z"/>
</g>
</svg>
