<?xml version="1.0" encoding="utf-8"?>
<!-- Generator: Adobe Illustrator 25.4.1, SVG Export Plug-In . SVG Version: 6.00 Build 0)  -->
<svg version="1.1" id="icons8-twitter" xmlns="http://www.w3.org/2000/svg" xmlns:xlink="http://www.w3.org/1999/xlink" x="0px"
	 y="0px" width="25px" height="25px" viewBox="0 0 25 25" style="enable-background:new 0 0 25 25;" xml:space="preserve">
<style type="text/css">
	.st0{fill:#FFFFFF;}
</style>
<path id="Path_89" class="st0" d="M25,4.8c-1,0.4-1.9,0.7-2.9,0.8c1.1-0.7,1.8-1.7,2.2-2.8c-1,0.6-2.1,1-3.2,1.3
	c-1.9-2-5.2-2.1-7.2-0.2c-1.4,1.3-1.8,3.1-1.5,4.9c-4.1-0.4-8-2.3-10.6-5.4c-1.4,2.3-0.7,5.3,1.6,6.8c-0.8-0.1-1.6-0.3-2.3-0.7v0.1
	c0,2.4,1.8,4.6,4.1,5c-0.5,0.1-0.9,0.2-1.4,0.2c-0.3,0-0.7,0-1-0.1c0.7,2,2.6,3.5,4.8,3.5c-1.8,1.5-4.1,2.2-6.3,2.1
	c-0.4,0-0.8,0-1.3-0.1c2.3,1.5,5.1,2.3,7.8,2.3c8,0.1,14.5-6.3,14.5-14.3c0-0.1,0-0.1,0-0.2c0-0.2,0-0.5,0-0.7
	C23.4,6.7,24.3,5.8,25,4.8"/>
</svg>
