<?xml version="1.0" encoding="utf-8"?>
<!-- Generator: Adobe Illustrator 25.4.1, SVG Export Plug-In . SVG Version: 6.00 Build 0)  -->
<svg version="1.1" id="Layer_1" xmlns="http://www.w3.org/2000/svg" xmlns:xlink="http://www.w3.org/1999/xlink" x="0px" y="0px"
	 width="25px" height="25px" viewBox="0 0 25 25" style="enable-background:new 0 0 25 25;" xml:space="preserve">
<style type="text/css">
	.st0{fill:#FFFFFF;}
</style>
<g>
	<path class="st0" d="M24.5,6.5c-0.3-1.1-1.1-1.9-2.2-2.2c-2-0.5-9.8-0.5-9.8-0.5s-7.8,0-9.8,0.5c-1,0.3-1.9,1.1-2.2,2.2
		c-0.5,2-0.5,6-0.5,6s0,4.1,0.5,6c0.3,1.1,1.1,1.9,2.2,2.2c2,0.5,9.8,0.5,9.8,0.5s7.8,0,9.8-0.5c1.1-0.3,1.9-1.1,2.2-2.2
		c0.5-2,0.5-6,0.5-6S25,8.4,24.5,6.5z M10,16.2V8.8l6.5,3.8L10,16.2z"/>
</g>
</svg>
