<?xml version="1.0" encoding="UTF-8"?><svg id="Layer_1" xmlns="http://www.w3.org/2000/svg" viewBox="0 0 540 76.276"><path d="M108.829,69.322V9.029h-5.787v-2.05h13.627v2.05h-5.791v60.295h-2.048v-.002Zm20.469,.45h-1.869c-4.098,0-6.236-2.05-6.236-6.056V12.589c0-4.006,2.124-6.056,6.236-6.056h1.869c4.098,0,6.144,2.05,6.144,6.056V63.716c0,4.006-2.046,6.056-6.144,6.056Zm-.088-61.189h-1.772c-2.761,0-4.098,1.245-4.098,3.919V63.823c0,2.672,1.339,3.919,4.098,3.919h1.77c2.761,0,4.094-1.245,4.094-3.919V12.502c.002-2.673-1.333-3.919-4.092-3.919Zm14.054,60.739h-2.124V6.979h6.413c4.365,0,6.409,1.869,6.409,6.056v22.889c0,4.369-2.227,6.594-6.59,6.594h-4.109s.002,26.804,.002,26.804Zm4.184-60.293h-4.184v31.441h4.006c3.03,0,4.544-1.417,4.544-4.365V12.948c0-2.673-1.604-3.919-4.367-3.919Zm34.559,54.686c0,4.006-2.124,6.056-6.144,6.056h-1.158c-4.01,0-6.06-2.05-6.06-5.967v-17.814h2.05v17.814c0,2.672,1.245,4.006,4.01,4.006h1.158c2.761,0,4.094-1.335,4.094-4.006v-25.839c0-2.761-1.335-4.096-3.919-4.096-2.09,.084-4.069,.973-5.522,2.477h-1.691V6.974h12.824v1.968h-10.778l-.082,25.204c1.532-1.41,3.532-2.202,5.614-2.225,3.472,0,5.61,2.05,5.61,5.702,0,0-.006,26.094-.006,26.094Zm13.244,6.056h-1.77c-4.098,0-6.148-2.05-6.148-6.056V12.589c0-4.006,2.05-6.056,6.148-6.056h1.77c4.006,0,6.144,2.05,6.144,6.056V63.716c0,4.006-2.138,6.056-6.144,6.056Zm-.09-61.277h-1.602c-2.849,0-4.188,1.335-4.188,4.006V63.822c0,2.672,1.339,4.006,4.188,4.006h1.604c2.832,0,4.188-1.335,4.188-4.006V12.502c-.002-2.673-1.339-4.006-4.189-4.006h0Zm35.272,34.99v-8.183h14.25v22.982c0,7.748-3.829,11.577-11.577,11.577h-5.074c-7.752,0-11.581-3.829-11.581-11.577V18.022c0-7.748,3.829-11.577,11.581-11.577h4.987c7.748,0,11.489,3.829,11.489,11.489v10.067h-9.352v-9.533c0-2.477-1.158-3.654-3.564-3.654h-1.956c-2.477,0-3.652,1.161-3.652,3.654V57.837c0,2.477,1.158,3.654,3.652,3.654h2.124c2.477,0,3.65-1.157,3.65-3.654v-14.351h-4.977Zm49.172,25.837h-9.439l-1.245-9.798h-9.889l-1.171,9.798h-8.802l8.905-62.434h12.639l9.003,62.434Zm-19.506-18.259h7.752l-3.829-31.172-3.923,31.172Zm51.134-2.935v10.154c0,7.748-3.829,11.577-11.577,11.577h-4.188c-7.748,0-11.489-3.829-11.489-11.489v-13.181h9.273v12.822c0,2.407,1.157,3.564,3.652,3.564h1.245c2.496,0,3.652-1.157,3.652-3.564v-8.551c.134-2.06-.898-4.021-2.672-5.076l-9.632-7.037c-4.275-3.03-5.521-5.967-5.521-10.778v-8.549c0-7.748,3.829-11.577,11.577-11.577h4.01c7.66,0,11.489,3.829,11.489,11.489v11.325h-9.352v-10.972c0-2.407-1.157-3.564-3.564-3.564h-1.157c-2.403,0-3.56,1.157-3.56,3.564v6.949c-.157,2.064,.88,4.036,2.67,5.076l9.62,7.037c4.178,3.032,5.522,5.704,5.522,10.78h0Zm12.774,21.193V15.62h-8.551V6.979h26.641V15.62h-8.551v53.703h-9.54Zm50.428-21.193v21.193h-9.529v-21.016c0-2.761-1.249-4.006-4.01-4.006h-4.291v25.024h-9.529V6.979h15.677c7.748,0,11.577,3.829,11.577,11.577v11.758c0,5.521-1.96,8.194-5.433,9.62,3.936,1.074,5.538,3.472,5.538,8.194h0Zm-13.181-32.686h-4.647v20.574h4.275c2.672,0,3.923-1.249,3.923-3.833v-13.179c.013-2.418-1.146-3.562-3.551-3.562h0Zm35.564,54.42h-5.076c-7.752,0-11.581-3.829-11.581-11.577V18.022c0-7.748,3.829-11.577,11.581-11.577h5.076c7.752,0,11.581,3.829,11.581,11.577V58.283c.002,7.748-3.827,11.579-11.581,11.579Zm-1.514-55.045h-1.958c-2.477,0-3.652,1.161-3.652,3.652V57.837c0,2.477,1.157,3.654,3.652,3.654h1.958c2.407,0,3.564-1.157,3.564-3.654V18.468c0-2.492-1.157-3.652-3.564-3.652Zm28.514,54.505h-9.517V6.979h14.965c7.748,0,11.577,3.829,11.577,11.577v16.567c0,7.748-3.829,11.577-11.577,11.577h-5.433l-.015,22.622h0Zm3.932-53.971h-3.919v22.982h3.919c2.407,0,3.564-1.157,3.564-3.654v-15.677c-.025-2.49-1.173-3.652-3.564-3.652Zm46.273,42.932c0,7.748-3.829,11.577-11.577,11.577h-4.634c-7.748,0-11.577-3.829-11.577-11.577V6.979h9.533V57.837c0,2.477,1.157,3.654,3.65,3.654h1.514c2.407,0,3.564-1.157,3.564-3.654V6.979h9.529s-.002,51.304-.002,51.304Zm33.119-12.027v11.493c0,7.748-3.833,11.577-11.581,11.577h-15.574V6.979h15.41c7.748,0,11.577,3.829,11.577,11.577v9.174c0,5.522-1.869,8.286-5.345,9.533,3.728,1.245,5.513,3.917,5.513,8.993Zm-13.184-30.905h-4.54v18.171h4.184c2.672,0,3.921-1.245,3.921-3.919v-10.688c.261-1.707-.912-3.303-2.619-3.564,0,0,0,0-.001,0-.313-.048-.631-.048-.944,0Zm-4.542,45.606h4.718c2.407,0,3.564-1.157,3.564-3.564v-11.846c0-2.672-1.245-3.919-3.919-3.919h-4.365v19.328h.002Zm50.583-12.828v10.154c0,7.748-3.829,11.577-11.577,11.577h-4.188c-7.748,0-11.489-3.829-11.489-11.489v-13.181h9.262v12.822c0,2.407,1.157,3.564,3.65,3.564h1.249c2.477,0,3.652-1.157,3.652-3.564v-8.551c.134-2.06-.898-4.021-2.672-5.076l-9.62-7.037c-4.275-3.03-5.52-5.967-5.52-10.778v-8.549c0-7.748,3.829-11.577,11.577-11.577h4.006c7.66,0,11.491,3.829,11.493,11.489v11.325h-9.355v-10.972c0-2.407-1.157-3.564-3.56-3.564h-1.157c-2.407,0-3.564,1.157-3.564,3.564v6.949c-.157,2.064,.881,4.037,2.672,5.076l9.62,7.037c4.184,3.032,5.522,5.704,5.522,10.78h0ZM43.924,37.44l-15.919,11.569,6.075-18.72-15.919-11.571h19.681L43.924,0l6.085,18.718h19.683l-15.925,11.571,6.081,18.72-15.925-11.569Zm36.556,23.154l.831-6.558h.202l.852,6.558h-1.886Zm-4.899,5.685h4.697l-.09-.248c-.227-.561-.29-1.175-.181-1.77l.135-1.121h2.563l.156,1.278c.069,.547,0,1.103-.202,1.617l-.092,.248h5.238l-.181-.29c-.334-.568-.555-1.194-.65-1.844l-1.684-10.536c-.109-.635-.08-1.285,.09-1.907l.09-.294h-7.706l.09,.294c.225,.665,.273,1.378,.137,2.067l-1.665,10.618c-.08,.504-.248,.991-.496,1.438,0,0-.25,.45-.25,.45Zm-9.638,0h8.873v-3.39l-.223,.181c-.522,.452-1.195,.692-1.886,.673h-1.752v-10.345c-.05-.648,.17-1.287,.604-1.77l.181-.223h-5.797l.181,.223c.435,.482,.654,1.121,.604,1.77v10.919c.05,.648-.17,1.287-.604,1.77,0,0-.181,.193-.181,.193Zm-9.752,0h8.877v-3.39l-.227,.181c-.522,.452-1.195,.692-1.886,.673h-1.752v-10.345c-.05-.648,.17-1.287,.604-1.77l.181-.223h-5.797l.181,.223c.435,.482,.654,1.121,.604,1.77v10.919c.05,.648-.168,1.288-.604,1.77,0,0-.181,.193-.181,.193Zm-11.276,0h9.43v-3.328l-.227,.181c-.479,.431-1.11,.648-1.752,.604h-2.538v-3.593h1.482c.648-.049,1.288,.171,1.77,.608l.223,.177v-4.109l-.223,.181c-.482,.435-1.121,.654-1.77,.604h-1.482v-3.663h2.538c.643-.044,1.276,.175,1.752,.608l.227,.177v-3.324h-9.428l.177,.223c.437,.482,.656,1.121,.608,1.77v10.919c.049,.648-.171,1.288-.608,1.77,0,0-.179,.193-.179,.193Zm-8.474-8.583v-3.751h.946c.898,0,1.013,.517,1.013,.923v1.886c0,.404-.113,.942-1.013,.942h-.946Zm-4.92,8.583h5.709l-.179-.223c-.437-.481-.657-1.121-.608-1.77v-4.048h.913l2.088,6.041h4.497c-.37-.456-.662-.971-.856-1.526l-2.021-5.126c1.013-.713,1.569-1.909,1.463-3.143v-1.442c.166-1.852-1.199-3.486-3.049-3.652-.242-.021-.486-.017-.727,.013h-7.229l.181,.223c.435,.482,.654,1.121,.604,1.77v10.919c.05,.648-.168,1.288-.604,1.77,0,0-.181,.193-.181,.193Zm-11.209-11.436l.244-.181c.619-.473,1.38-.722,2.159-.707h.604v10.265c.084,.675-.139,1.35-.604,1.844l-.248,.223h5.932l-.181-.223c-.459-.502-.701-1.165-.673-1.844v-10.265h.584c.778-.015,1.537,.234,2.155,.707l.248,.181v-3.436h-10.221l.002,3.436h0Zm-9.617,.652c-.126,1.487,.53,2.933,1.731,3.82l1.707,1.26c1.369,1.013,1.617,1.348,1.617,2.021,0,.852-.629,1.215-1.819,1.215-.892-.019-1.764-.263-2.538-.707l-.675-.381v3.709l.315-.092c.408-.118,.832-.178,1.257-.177,.744,0,1.642,.156,2.63,.156,3.213,0,4.853-1.55,4.853-4.18,.024-1.582-.742-3.072-2.042-3.974l-1.712-1.266c-1.009-.74-1.348-1.1-1.348-1.77,0-.765,.406-1.26,1.55-1.26,.797,.017,1.573,.252,2.248,.675l.652,.383v-3.635l-.315,.092c-.367,.088-.744,.133-1.121,.135-.707,0-1.571-.158-2.563-.158-2.673-.002-4.426,1.415-4.426,4.134ZM0,66.282H9.435v-3.329l-.223,.177c-.477,.433-1.11,.653-1.752,.608h-2.54v-3.589h1.484c.648-.05,1.287,.17,1.77,.604l.227,.181v-4.109l-.227,.177c-.481,.439-1.121,.658-1.77,.608h-1.484v-3.663h2.54c.642-.043,1.274,.175,1.752,.604l.223,.181v-3.324H0l.191,.215c.433,.484,.646,1.123,.595,1.77v10.919c.05,.648-.17,1.287-.604,1.77l-.181,.198Zm42.778,9.975h2.717l-.092-.109c-.227-.26-.352-.593-.353-.938v-3.522h.092l.835,2.34h.803l.828-2.34h.074v3.522c.004,.343-.116,.675-.336,.938l-.092,.109h2.87l-.095-.109c-.225-.261-.351-.593-.355-.938v-5.341c.002-.345,.128-.677,.355-.938l.095-.109h-2.725l-.917,2.832h-.057l-1.096-2.832h-2.548l.092,.109c.221,.262,.34,.595,.336,.938v5.341c.004,.343-.116,.675-.336,.938,0,0-.095,.109-.095,.109Zm-4.474-2.832l.433-3.282h.092l.414,3.282s-.938,0-.938,0Zm-2.479,2.832h2.418l-.057-.109c-.12-.285-.158-.597-.111-.902l.053-.559h1.274l.095,.637c.045,.282,0,.57-.132,.824l-.057,.109h2.679l-.092-.149c-.183-.277-.304-.59-.355-.917l-.843-5.267c-.069-.318-.049-.648,.057-.955l.057-.149h-3.9l.078,.149c.134,.327,.16,.687,.074,1.03l-.826,5.309c-.042,.25-.131,.49-.261,.707,0,0-.154,.242-.154,.242Zm-4.111-1.272v-4.891h.524c.45,0,.505,.261,.505,.45v3.989c0,.187-.057,.45-.505,.45l-.524,.002Zm-2.55,1.274h3.766c.928,.131,1.787-.514,1.918-1.442,.017-.124,.021-.249,.011-.373v-3.808c.069-.94-.635-1.756-1.575-1.827-.118-.009-.237-.006-.355,.011h-3.766l.092,.109c.227,.259,.353,.593,.355,.938v5.341c-.001,.345-.127,.679-.355,.938,0,0-.092,.113-.092,.113Zm22.223-.109c.221-.262,.34-.595,.336-.938v-5.345c.004-.343-.116-.675-.336-.938l-.095-.109h2.55l1.1,2.832h.057l.917-2.832h2.725l-.095,.109c-.225,.261-.351,.593-.355,.938v5.341c.002,.345,.128,.677,.355,.938l.095,.109h-2.881l.092-.109c.227-.259,.353-.593,.355-.938v-3.522h-.092l-.828,2.34h-.803l-.835-2.34h-.078v3.522c.002,.345,.128,.679,.355,.938l.092,.109h-2.721s.092-.105,.092-.105Z"/></svg>