<svg xmlns="http://www.w3.org/2000/svg" width="150.54" height="29.145" viewBox="0 0 150.54 29.145"><g transform="translate(8011 6563)"><g transform="translate(-8011 -6563)"><g transform="translate(0 0)"><path d="M228.261,84.54V58.1h-2.867v-2.21h8.145V58.1h-2.867V84.54Z" transform="translate(-225.394 -55.641)"/><path d="M233.442,84.947h-.9c-2.62,0-3.887-1.307-3.887-3.888V59.692c0-2.58,1.267-3.89,3.887-3.89h.9c2.574,0,3.885,1.31,3.885,3.89V81.059C237.326,83.639,236.016,84.947,233.442,84.947Zm-.123-26.931h-.737a1.353,1.353,0,0,0-1.557,1.554V81.142c0,1.1.49,1.6,1.557,1.6h.737a1.4,1.4,0,0,0,1.6-1.6V59.569C234.915,58.505,234.382,58.015,233.318,58.015Z" transform="translate(-219.314 -55.802)"/><path d="M234.878,84.54h-2.414V55.888h4.177c2.864,0,3.931,1.147,3.931,3.89v9.7c0,2.577-1.31,3.887-3.931,3.887h-1.763Zm1.68-26.441h-1.68V71.157h1.68c1.064,0,1.6-.49,1.6-1.557V59.655C238.155,58.591,237.621,58.1,236.558,58.1Z" transform="translate(-212.195 -55.641)"/><path d="M245.355,80.9c0,2.58-1.27,3.845-3.81,3.845h-.614c-2.5,0-3.724-1.224-3.724-3.8V73.978H239.5v7c0,1.1.493,1.6,1.474,1.6h.533c1.024,0,1.517-.493,1.517-1.6v-10.4c0-1.147-.453-1.677-1.433-1.677a3.131,3.131,0,0,0-2.293,1.187h-2.007V55.888h7.821V58.1h-5.527l-.083,9.578a4.07,4.07,0,0,1,2.663-.983,3.1,3.1,0,0,1,3.194,3.44Z" transform="translate(-203.34 -55.641)"/><path d="M245.431,84.947h-.78c-2.62,0-3.844-1.307-3.844-3.888V59.692c0-2.58,1.224-3.89,3.844-3.89h.78c2.62,0,3.888,1.31,3.888,3.89V81.059C249.319,83.639,248.052,84.947,245.431,84.947Zm-.043-26.931h-.654c-1.107,0-1.6.49-1.6,1.554V81.142c0,1.1.49,1.6,1.6,1.6h.654a1.4,1.4,0,0,0,1.6-1.6V59.569C246.985,58.505,246.455,58.015,245.388,58.015Z" transform="translate(-196.619 -55.802)"/><path d="M255.685,84.566h-3.151l-.41-4.378h-3.277l-.367,4.378h-2.944l2.944-28.692h4.257Zm-6.591-7.2h2.784l-1.39-15.513Z" transform="translate(-187.79 -55.668)"/><path d="M258.853,72.545v8.515c0,2.58-1.27,3.888-3.89,3.888h-1.6c-2.577,0-3.887-1.307-3.887-3.888V59.692c0-2.58,1.31-3.89,3.887-3.89h1.557c2.62,0,3.847,1.27,3.847,3.85v7.938h-3.111V59.856c0-.86-.37-1.227-1.23-1.227h-.53c-.82,0-1.19.367-1.19,1.227V80.9c0,.86.37,1.227,1.19,1.227h.613c.817,0,1.187-.367,1.187-1.227V72.545Z" transform="translate(-180.431 -55.802)"/><path d="M262.724,72.545v8.515c0,2.58-1.27,3.888-3.888,3.888h-1.6c-2.58,0-3.89-1.307-3.89-3.888V59.692c0-2.58,1.31-3.89,3.89-3.89H258.8c2.617,0,3.845,1.27,3.845,3.85v7.938H259.53V59.856c0-.86-.37-1.227-1.227-1.227h-.53c-.82,0-1.19.367-1.19,1.227V80.9c0,.86.37,1.227,1.19,1.227h.614c.814,0,1.184-.367,1.184-1.227V72.545Z" transform="translate(-173.204 -55.802)"/><path d="M262.83,84.947h-1.72c-2.58,0-3.89-1.307-3.89-3.928V59.692c0-2.58,1.31-3.89,3.89-3.89h1.72c2.618,0,3.885,1.31,3.885,3.89V81.019C266.715,83.639,265.448,84.947,262.83,84.947ZM262.3,58.629h-.654c-.82,0-1.19.367-1.19,1.227V80.9c0,.817.37,1.187,1.19,1.187h.654c.82,0,1.23-.37,1.23-1.187V59.856A1.07,1.07,0,0,0,262.3,58.629Z" transform="translate(-165.977 -55.802)"/><path d="M264.4,55.888V81.635h3.4v2.9H261.2V55.888Z" transform="translate(-158.537 -55.641)"/><path d="M273.9,84.566h-3.151l-.41-4.378H267.06l-.364,4.378h-2.947L266.7,55.874h4.254Zm-6.591-7.2h2.784L268.7,61.851Z" transform="translate(-153.787 -55.668)"/><path d="M267.763,55.888h4.831c3.151,0,4.541,1.433,4.541,4.587V79.958c0,3.111-1.474,4.581-4.541,4.581h-4.831Zm3.194,25.831h1.187c1.224,0,1.8-.616,1.8-1.843V60.555c0-1.227-.573-1.841-1.8-1.841h-1.187Z" transform="translate(-146.293 -55.641)"/><path d="M278.829,55.888V58.8H274.9v9.782h3.767v2.867H274.9V81.635h3.968v2.9h-7.162V55.888Z" transform="translate(-138.934 -55.641)"/><path d="M283.873,74.357v6.634c0,2.62-1.27,3.885-3.891,3.885h-1.433c-2.577,0-3.844-1.264-3.844-3.844V73.173h3.151v7.695c0,.817.367,1.187,1.187,1.187h.45c.817,0,1.187-.37,1.187-1.187v-6.1a2.4,2.4,0,0,0-1.023-2.291l-3.03-2.414a4.608,4.608,0,0,1-1.921-4.26V59.7c0-2.62,1.267-3.887,3.888-3.887h1.35c2.62,0,3.89,1.267,3.89,3.847v7.368h-3.194v-7.2c0-.817-.33-1.227-1.147-1.227h-.41c-.82,0-1.187.41-1.187,1.227v5.608a2.4,2.4,0,0,0,1.024,2.293l2.947,2.334A4.514,4.514,0,0,1,283.873,74.357Z" transform="translate(-133.333 -55.774)"/></g></g></g></svg>